<svg aria-hidden="true" style="position: absolute; width: 0; height: 0; overflow: hidden;" version="1.1" xmlns="http://www.w3.org/2000/svg" xmlns:xlink="http://www.w3.org/1999/xlink">
<defs>
<symbol id="icon-client-five" viewBox="0 0 32 32">
<path fill="#afb1b8" style="fill: var(--color1, #afb1b8)" d="M11.060 18.774c0.046 0.052 0.070 0.117 0.069 0.184 0 0.004 0 0.009 0 0.014 0 0.041-0.009 0.080-0.026 0.115l0.001-0.002c-0.020 0.042-0.048 0.077-0.082 0.105l-0.001 0c-0.078 0.054-0.174 0.086-0.278 0.086-0.011 0-0.023-0-0.034-0.001l0.002 0h-0.547v-1.165h0.535c0.009-0.001 0.021-0.001 0.032-0.001 0.098 0 0.19 0.029 0.267 0.079l-0.002-0.001c0.035 0.027 0.062 0.060 0.080 0.098s0.026 0.079 0.024 0.12c0.003 0.064-0.019 0.127-0.062 0.178-0.042 0.046-0.099 0.078-0.163 0.091 0.072 0.012 0.138 0.047 0.184 0.1zM10.419 18.598h0.229c0.052 0.003 0.104-0.010 0.146-0.039 0.017-0.014 0.030-0.031 0.039-0.051l0-0.001c0.007-0.015 0.011-0.033 0.011-0.051 0-0.004-0-0.008-0.001-0.012l0 0c0-0.003 0-0.006 0-0.010 0-0.019-0.004-0.037-0.011-0.053l0 0.001c-0.009-0.021-0.022-0.038-0.038-0.052l-0-0c-0.037-0.025-0.083-0.040-0.132-0.040-0.006 0-0.013 0-0.019 0.001l0.001-0h-0.225v0.306zM10.816 19.045c0.018-0.014 0.032-0.032 0.042-0.053l0-0.001c0.008-0.016 0.012-0.036 0.012-0.056 0-0.003-0-0.006-0-0.010l0 0c0-0.003 0-0.006 0-0.009 0-0.021-0.005-0.041-0.013-0.058l0 0.001c-0.010-0.021-0.025-0.039-0.043-0.053l-0-0c-0.039-0.027-0.088-0.043-0.14-0.043-0.005 0-0.011 0-0.016 0l0.001-0h-0.24v0.321h0.243c0.055 0.003 0.109-0.011 0.154-0.040zM12.154 19.275l-0.298-0.456h-0.112v0.456h-0.256v-1.165h0.485c0.010-0.001 0.022-0.001 0.035-0.001 0.114 0 0.219 0.038 0.304 0.101l-0.001-0.001c0.068 0.063 0.109 0.147 0.115 0.235 0.001 0.007 0.001 0.016 0.001 0.024 0 0.085-0.030 0.163-0.081 0.223l0-0.001c-0.060 0.062-0.14 0.105-0.229 0.118l-0.002 0 0.317 0.466h-0.279zM11.745 18.66h0.21c0.146 0 0.218-0.059 0.218-0.176 0-0.003 0-0.006 0-0.009 0-0.022-0.004-0.043-0.013-0.062l0 0.001c-0.010-0.024-0.024-0.044-0.041-0.060l-0-0c-0.040-0.030-0.090-0.048-0.145-0.048-0.007 0-0.014 0-0.021 0.001l0.001-0h-0.212l0.002 0.355zM13.555 19.040h-0.511l-0.090 0.235h-0.269l0.469-1.152h0.29l0.467 1.152h-0.268l-0.088-0.235zM13.486 18.864l-0.187-0.492-0.187 0.492h0.373zM15.308 19.275h-0.254l-0.57-0.792v0.792h-0.254v-1.166h0.254l0.57 0.797v-0.797h0.254v1.166zM16.759 18.996c-0.053 0.088-0.133 0.16-0.23 0.206-0.099 0.047-0.215 0.074-0.337 0.074-0.007 0-0.015-0-0.022-0l0.001 0h-0.453v-1.165h0.453c0.006-0 0.014-0 0.021-0 0.122 0 0.237 0.026 0.341 0.074l-0.005-0.002c0.097 0.045 0.177 0.116 0.23 0.203 0.052 0.095 0.080 0.2 0.080 0.306s-0.027 0.211-0.080 0.306zM16.468 18.968c0.069-0.072 0.112-0.17 0.112-0.278v-0c0-0.102-0.040-0.201-0.112-0.278-0.079-0.062-0.18-0.1-0.289-0.1-0.010 0-0.020 0-0.030 0.001l0.001-0h-0.177v0.754h0.177c0.009 0.001 0.019 0.001 0.029 0.001 0.11 0 0.21-0.038 0.29-0.101l-0.001 0.001zM13.714 11.627s3.283 1.135 3.213 2.777v2.777s-3.28-1.135-3.212-2.777l-0.001-2.777zM19.851 16.53c0.62-0.391 1.337-0.632 2.086-0.704v-0.87c-0.863 0.305-1.594 0.856-2.086 1.573z"></path>
<path fill="#afb1b8" style="fill: var(--color1, #afb1b8)" d="M19.479 16.792c0.507-0.936 1.387-1.657 2.458-2.017v-2.505s-4.675 1.616-4.576 3.955v3.954s0.208-0.072 0.536-0.208c0-0.126 0-0.254 0.015-0.382 0.097-1.085 0.66-2.091 1.567-2.797z"></path>
<path fill="#afb1b8" style="fill: var(--color1, #afb1b8)" d="M19.034 18.261c0.024-0.274 0.079-0.546 0.164-0.81-0.565 0.609-0.907 1.365-0.977 2.161-0.007 0.075-0.011 0.15-0.013 0.228 0.39-0.171 0.685-0.316 0.974-0.471l-0.075 0.037c-0.083-0.377-0.107-0.762-0.073-1.145zM19.22 18.276c-0.009 0.096-0.014 0.208-0.014 0.32 0 0.254 0.026 0.501 0.076 0.74l-0.004-0.023c1.277-0.7 2.712-1.781 2.657-3.088v-0.114c-0.913 0.094-1.766 0.459-2.43 1.040-0.146 0.329-0.248 0.711-0.284 1.111l-0.001 0.014z"></path>
</symbol>
<symbol id="icon-client-four" viewBox="0 0 32 32">
<path fill="#2196f3" style="fill: var(--color2, #2196f3)" d="M10.569 14.325h-0.001c-0.451 0-0.817 0.325-0.817 0.726v0.001c0 0.401 0.366 0.726 0.817 0.726h0.001c0.451 0 0.817-0.325 0.817-0.726v-0c0-0.401-0.366-0.727-0.817-0.727zM16.601 14.093c-0.001-0.557-0.251-1.091-0.694-1.485s-1.044-0.616-1.671-0.617c-0.627 0.001-1.228 0.223-1.672 0.617s-0.693 0.928-0.695 1.486v3.073s4.731-0.468 4.732-3.072v-0.001zM8.094 18.174c0.001 0.388 0.175 0.759 0.483 1.033s0.726 0.429 1.163 0.43c0.436-0.001 0.854-0.156 1.163-0.43s0.482-0.645 0.483-1.033v-2.138s-3.292 0.326-3.292 2.138zM9.74 18.557c-0.085 0-0.168-0.022-0.239-0.065-0.069-0.041-0.123-0.099-0.158-0.169l-0.001-0.002c-0.021-0.043-0.033-0.093-0.033-0.146 0-0.027 0.003-0.052 0.009-0.077l-0 0.002c0.017-0.074 0.058-0.143 0.118-0.196s0.137-0.090 0.221-0.105c0.025-0.005 0.055-0.007 0.084-0.007 0.059 0 0.116 0.011 0.168 0.030l-0.003-0.001c0.079 0.029 0.146 0.078 0.193 0.141s0.073 0.137 0.073 0.213c0 0.050-0.011 0.101-0.032 0.147-0.023 0.049-0.055 0.090-0.093 0.124l-0 0c-0.040 0.036-0.088 0.064-0.14 0.083-0.049 0.019-0.106 0.029-0.165 0.029-0 0-0 0-0 0h0v-0.002zM13.067 18.346h-0.318v0.328h-0.165v-0.803h0.523v0.134h-0.357v0.207h0.318v0.133zM13.862 18.291c0 0.079-0.014 0.148-0.042 0.208s-0.068 0.105-0.12 0.138c-0.049 0.031-0.109 0.049-0.172 0.049-0.002 0-0.004-0-0.006-0h0c-0.067 0-0.126-0.016-0.178-0.048-0.053-0.033-0.094-0.080-0.12-0.135l-0.001-0.002c-0.027-0.058-0.044-0.126-0.044-0.198 0-0.002 0-0.005 0-0.007v0-0.040c0-0.079 0.014-0.149 0.042-0.209s0.069-0.107 0.121-0.138c0.052-0.032 0.112-0.049 0.179-0.049s0.126 0.016 0.178 0.049c0.052 0.032 0.092 0.078 0.121 0.138s0.043 0.129 0.043 0.208v0.036zM13.694 18.255c0-0.084-0.015-0.148-0.045-0.192-0.027-0.040-0.072-0.066-0.123-0.066-0.002 0-0.005 0-0.007 0h0c-0.002-0-0.004-0-0.006-0-0.051 0-0.095 0.026-0.122 0.065l-0 0.001c-0.030 0.043-0.045 0.106-0.046 0.19v0.039c0 0.082 0.015 0.145 0.045 0.191s0.073 0.068 0.13 0.068c0.002 0 0.004 0 0.007 0 0.050 0 0.095-0.026 0.121-0.065l0-0.001c0.030-0.044 0.045-0.107 0.045-0.191v-0.039zM14.399 18.463c0-0.001 0-0.003 0-0.005 0-0.027-0.013-0.051-0.033-0.067l-0-0c-0.022-0.017-0.062-0.035-0.119-0.053-0.053-0.017-0.098-0.035-0.141-0.057l0.005 0.002c-0.091-0.049-0.137-0.116-0.137-0.199 0-0.043 0.012-0.082 0.036-0.116s0.060-0.061 0.105-0.080c0.046-0.019 0.098-0.029 0.154-0.029s0.108 0.010 0.153 0.031c0.045 0.021 0.080 0.050 0.104 0.088s0.038 0.081 0.038 0.129h-0.166c0-0.037-0.011-0.065-0.035-0.085s-0.056-0.031-0.098-0.031c-0.040 0-0.072 0.009-0.094 0.026-0.021 0.015-0.034 0.038-0.034 0.065 0 0.001 0 0.001 0 0.002v-0c0 0.026 0.013 0.048 0.039 0.066s0.065 0.034 0.116 0.049c0.094 0.028 0.163 0.063 0.206 0.105s0.065 0.094 0.065 0.157c0 0.069-0.026 0.124-0.079 0.164s-0.123 0.059-0.212 0.059c-0.062 0-0.118-0.011-0.169-0.034-0.048-0.020-0.087-0.052-0.116-0.092l-0.001-0.001c-0.025-0.037-0.040-0.083-0.040-0.132 0-0.002 0-0.004 0-0.005v0h0.166c0 0.088 0.053 0.133 0.159 0.133 0.039 0 0.070-0.008 0.092-0.024 0.020-0.014 0.033-0.038 0.033-0.064 0-0.001-0-0.002-0-0.003v0zM15.281 18.005h-0.246v0.669h-0.166v-0.669h-0.242v-0.134h0.654v0.134zM15.859 18.326h-0.318v0.215h0.373v0.133h-0.538v-0.803h0.537v0.134h-0.372v0.191h0.318v0.13zM16.309 18.38h-0.132v0.294h-0.165v-0.803h0.298c0.095 0 0.168 0.021 0.219 0.063s0.077 0.102 0.077 0.179c0 0.055-0.012 0.101-0.036 0.137-0.027 0.039-0.063 0.069-0.106 0.087l-0.002 0.001 0.174 0.328v0.008h-0.177l-0.151-0.294zM16.177 18.246h0.134c0.041 0 0.073-0.010 0.096-0.031 0.021-0.021 0.034-0.050 0.034-0.082 0-0.002-0-0.004-0-0.006v0c0-0.038-0.011-0.068-0.032-0.089s-0.054-0.033-0.099-0.033h-0.133v0.241zM17.18 18.391v0.283h-0.165v-0.803h0.313c0.060 0 0.113 0.011 0.159 0.033s0.081 0.053 0.106 0.094c0.024 0.040 0.037 0.087 0.037 0.138 0 0.079-0.027 0.141-0.081 0.186s-0.128 0.068-0.223 0.068h-0.145zM17.18 18.257h0.148c0.044 0 0.077-0.010 0.1-0.031s0.035-0.050 0.035-0.088c0-0.002 0-0.004 0-0.006 0-0.035-0.013-0.066-0.035-0.090l0 0c-0.023-0.024-0.055-0.037-0.096-0.037h-0.152v0.252zM18.226 18.326h-0.318v0.215h0.373v0.133h-0.538v-0.803h0.537v0.134h-0.372v0.191h0.318v0.13zM18.994 18.005h-0.246v0.669h-0.165v-0.669h-0.243v-0.134h0.654v0.134zM19.572 18.326h-0.318v0.215h0.373v0.133h-0.538v-0.803h0.537v0.134h-0.372v0.191h0.318v0.13zM20.021 18.38h-0.132v0.294h-0.165v-0.803h0.298c0.095 0 0.168 0.021 0.219 0.063s0.077 0.102 0.077 0.179c0 0.055-0.012 0.101-0.036 0.137-0.027 0.039-0.063 0.069-0.106 0.087l-0.002 0.001 0.174 0.328v0.008h-0.177l-0.151-0.294zM19.89 18.246h0.133c0.041 0 0.074-0.010 0.096-0.031s0.034-0.051 0.034-0.088c0-0.038-0.011-0.068-0.033-0.089s-0.054-0.033-0.099-0.033h-0.133v0.241zM20.862 18.464c0-0.001 0-0.003 0-0.005 0-0.027-0.013-0.052-0.033-0.067l-0-0c-0.022-0.017-0.062-0.035-0.119-0.053-0.053-0.016-0.098-0.035-0.141-0.057l0.005 0.002c-0.091-0.049-0.137-0.116-0.137-0.199 0-0.043 0.012-0.082 0.036-0.116s0.060-0.061 0.105-0.080c0.046-0.019 0.098-0.029 0.154-0.029s0.108 0.010 0.153 0.031c0.045 0.021 0.080 0.050 0.104 0.088s0.038 0.081 0.038 0.129h-0.165c0-0.037-0.012-0.065-0.035-0.085s-0.056-0.031-0.098-0.031c-0.040 0-0.072 0.009-0.094 0.026-0.020 0.015-0.034 0.038-0.034 0.065 0 0.001 0 0.001 0 0.002v-0c0 0.026 0.013 0.048 0.039 0.066s0.065 0.034 0.116 0.049c0.094 0.028 0.163 0.063 0.206 0.105s0.065 0.094 0.065 0.157c0 0.069-0.026 0.124-0.079 0.164s-0.123 0.059-0.212 0.059c-0.062 0-0.118-0.011-0.169-0.034-0.048-0.020-0.087-0.052-0.116-0.092l-0.001-0.001c-0.025-0.037-0.040-0.083-0.040-0.132 0-0.002 0-0.003 0-0.005v0h0.166c0 0.088 0.053 0.133 0.159 0.133 0.039 0 0.070-0.008 0.092-0.024 0.020-0.014 0.033-0.038 0.033-0.064 0-0.001-0-0.002-0-0.003v0z"></path>
</symbol>
<symbol id="icon-client-one" viewBox="0 0 32 32">
<path fill="#afb1b8" style="fill: var(--color1, #afb1b8)" d="M13.176 11.671l1.319 1.249-2.449-0.002v6.059h6.4v-2.317l1.318 1.247v-6.237h-6.588zM18.389 16.514l-3.74-3.541h3.74v3.541zM17.228 18.090h-4.168v-4.075h0.295v3.799h3.873v0.276zM14.044 19.784l-0.154 0.317-0.154-0.317h-0.129l0.225 0.423v0.246h0.117v-0.246l0.224-0.423h-0.129zM14.238 20.453l0.054-0.156h0.259l0.055 0.156h0.121l-0.253-0.669h-0.104l-0.253 0.669h0.121zM14.421 19.926l0.097 0.277h-0.194l0.097-0.278zM15.035 20.187c-0.016 0.024-0.025 0.053-0.025 0.084 0 0 0 0.001 0 0.001v-0c0 0.056 0.020 0.102 0.059 0.137s0.093 0.053 0.159 0.053c0.066 0 0.123-0.018 0.171-0.054l0.038 0.045h0.13l-0.098-0.116c0.039-0.053 0.058-0.12 0.058-0.203h-0.097c0 0.045-0.009 0.086-0.028 0.123l-0.129-0.152 0.046-0.033c0.028-0.019 0.051-0.042 0.069-0.069l0.001-0.001c0.013-0.022 0.021-0.048 0.021-0.076 0-0 0-0.001 0-0.001v0c0-0.001 0-0.002 0-0.003 0-0.041-0.018-0.078-0.047-0.103l-0-0c-0.030-0.027-0.069-0.043-0.113-0.043-0.002 0-0.005 0-0.007 0h0c-0.054 0-0.097 0.015-0.129 0.046s-0.048 0.072-0.048 0.124c0 0.021 0.005 0.044 0.015 0.067s0.029 0.051 0.055 0.084c-0.050 0.036-0.083 0.066-0.1 0.092zM15.336 20.335c-0.029 0.023-0.065 0.037-0.106 0.038h-0c-0.002 0-0.004 0-0.005 0-0.029 0-0.055-0.011-0.075-0.029l0 0c-0.019-0.018-0.030-0.044-0.030-0.072 0-0.001 0-0.003 0-0.004v0c0-0.036 0.018-0.068 0.055-0.096l0.014-0.010 0.146 0.172zM15.217 20.039c-0.032-0.039-0.047-0.071-0.047-0.097 0-0.022 0.007-0.041 0.019-0.056 0.012-0.014 0.030-0.022 0.049-0.022 0.001 0 0.002 0 0.003 0h-0c0.001-0 0.002-0 0.002-0 0.018 0 0.035 0.007 0.048 0.019l-0-0c0.013 0.012 0.020 0.027 0.020 0.045 0 0.001 0 0.001 0 0.002 0 0.025-0.011 0.047-0.028 0.062l-0 0-0.014 0.012-0.051 0.035zM16.306 20.402c0.046-0.040 0.072-0.096 0.079-0.167h-0.116c-0.006 0.048-0.021 0.082-0.044 0.102s-0.057 0.031-0.103 0.031c-0.050 0-0.088-0.019-0.114-0.057s-0.039-0.093-0.039-0.166v-0.059c0.001-0.072 0.014-0.125 0.041-0.162s0.066-0.056 0.117-0.056c0.043 0 0.076 0.011 0.099 0.032s0.037 0.056 0.042 0.104h0.116c-0.008-0.073-0.034-0.13-0.079-0.17s-0.104-0.060-0.178-0.060c-0.055 0-0.103 0.013-0.145 0.039s-0.075 0.065-0.095 0.109l-0.001 0.002c-0.021 0.047-0.034 0.102-0.034 0.159 0 0.003 0 0.006 0 0.008v-0 0.063c0.001 0.062 0.012 0.116 0.034 0.162s0.053 0.082 0.094 0.108c0.041 0.025 0.088 0.038 0.141 0.038 0.076 0 0.137-0.020 0.183-0.060zM16.989 20.308c0.023-0.049 0.034-0.107 0.034-0.173v-0.037c0-0.002 0-0.005 0-0.007 0-0.059-0.013-0.116-0.036-0.167l0.001 0.003c-0.021-0.047-0.055-0.086-0.097-0.112l-0.001-0.001c-0.042-0.026-0.090-0.040-0.145-0.040s-0.103 0.013-0.145 0.040c-0.042 0.026-0.075 0.064-0.098 0.114-0.022 0.048-0.035 0.105-0.035 0.165 0 0.003 0 0.006 0 0.009v-0 0.038c0 0.064 0.012 0.12 0.035 0.169s0.056 0.087 0.098 0.114c0.043 0.026 0.091 0.040 0.145 0.040s0.103-0.013 0.145-0.040c0.042-0.027 0.075-0.065 0.097-0.114zM16.865 19.93c0.028 0.040 0.042 0.097 0.042 0.171v0.035c0 0.075-0.014 0.133-0.042 0.172s-0.067 0.059-0.119 0.059c-0.001 0-0.003 0-0.005 0-0.047 0-0.089-0.024-0.114-0.060l-0-0c-0.029-0.040-0.043-0.097-0.043-0.171v-0.039c0.001-0.072 0.015-0.128 0.043-0.167 0.025-0.036 0.066-0.059 0.113-0.059 0.002 0 0.003 0 0.005 0h-0c0.051 0 0.091 0.020 0.119 0.059z"></path>
</symbol>
<symbol id="icon-client-six" viewBox="0 0 32 32">
<path fill="#afb1b8" style="fill: var(--color1, #afb1b8)" d="M16.080 15.512c-0.072-0.093-0.115-0.21-0.115-0.338 0-0.013 0-0.025 0.001-0.038l-0 0.002v-0.543c0-0.166 0.038-0.293 0.113-0.379s0.205-0.13 0.389-0.129c0.173 0 0.295 0.037 0.368 0.111 0.079 0.094 0.117 0.209 0.109 0.325v0.128h-0.309v-0.129c0.001-0.042-0.002-0.085-0.009-0.127-0.005-0.031-0.021-0.057-0.044-0.075l-0-0c-0.028-0.019-0.062-0.030-0.099-0.030-0.005 0-0.009 0-0.014 0.001l0.001-0c-0.004-0-0.009-0-0.013-0-0.039 0-0.075 0.012-0.105 0.032l0.001-0c-0.026 0.021-0.044 0.049-0.051 0.082l-0 0.001c-0.008 0.037-0.012 0.080-0.012 0.124 0 0.004 0 0.007 0 0.011v-0.001 0.659c-0.005 0.063 0.009 0.127 0.040 0.185 0.016 0.020 0.037 0.035 0.061 0.044l0.001 0c0.018 0.007 0.039 0.012 0.061 0.012 0.006 0 0.013-0 0.019-0.001l-0.001 0c0.004 0 0.008 0 0.013 0 0.036 0 0.070-0.011 0.097-0.031l-0.001 0c0.024-0.020 0.041-0.048 0.046-0.079l0-0.001c0.007-0.044 0.011-0.088 0.010-0.132v-0.134h0.309v0.122c0.001 0.010 0.001 0.021 0.001 0.032 0 0.117-0.041 0.225-0.109 0.31l0.001-0.001c-0.071 0.081-0.192 0.121-0.37 0.121s-0.312-0.043-0.388-0.133zM17.366 15.518c-0.078-0.085-0.117-0.208-0.117-0.371v-0.571c0-0.161 0.039-0.283 0.117-0.366s0.208-0.124 0.391-0.124c0.182 0 0.311 0.041 0.389 0.124s0.118 0.205 0.118 0.366v0.571c0 0.161-0.040 0.285-0.119 0.37s-0.208 0.127-0.388 0.127-0.313-0.043-0.392-0.127zM17.901 15.381c0.028-0.053 0.041-0.111 0.037-0.169v-0.699c0-0.006 0.001-0.012 0.001-0.019 0-0.054-0.014-0.104-0.038-0.148l0.001 0.002c-0.016-0.020-0.038-0.036-0.062-0.045l-0.001-0c-0.018-0.007-0.039-0.011-0.061-0.011-0.007 0-0.015 0-0.022 0.001l0.001-0c-0.006-0.001-0.014-0.001-0.021-0.001-0.022 0-0.043 0.004-0.062 0.011l0.001-0c-0.026 0.010-0.047 0.025-0.063 0.045l-0 0c-0.028 0.052-0.041 0.109-0.037 0.166v0.702c-0.004 0.058 0.009 0.116 0.037 0.169 0.018 0.018 0.040 0.032 0.065 0.042 0.024 0.009 0.051 0.015 0.079 0.015s0.056-0.005 0.081-0.015l-0.001 0.001c0.025-0.010 0.047-0.024 0.065-0.042v-0.003zM18.636 14.103h0.332l0.25 1.053 0.256-1.053h0.324l0.033 1.52h-0.239l-0.026-1.057-0.247 1.057h-0.192l-0.256-1.060-0.024 1.060h-0.242l0.030-1.52zM20.203 14.103h0.518c0.298 0 0.448 0.144 0.448 0.432 0 0.276-0.157 0.413-0.471 0.413h-0.176v0.676h-0.32l0.002-1.52zM20.646 14.753c0.032 0.004 0.064 0.001 0.094-0.007s0.058-0.022 0.082-0.041c0.037-0.051 0.053-0.112 0.046-0.172 0-0.005 0-0.011 0-0.017 0-0.043-0.006-0.085-0.017-0.125l0.001 0.003c-0.005-0.016-0.013-0.030-0.024-0.042l0 0c-0.011-0.012-0.025-0.023-0.040-0.030l-0.001-0c-0.037-0.016-0.081-0.025-0.126-0.025-0.006 0-0.012 0-0.017 0l0.001-0h-0.124v0.454h0.124zM21.63 14.103h0.344l0.352 1.52h-0.298l-0.070-0.351h-0.306l-0.072 0.351h-0.302l0.352-1.52zM21.924 15.097l-0.12-0.638-0.12 0.638h0.239zM22.61 14.103h0.224l0.428 0.867v-0.867h0.265v1.52h-0.213l-0.431-0.905v0.905h-0.274l0.001-1.52zM24.149 15.044l-0.356-0.938h0.3l0.217 0.603 0.204-0.603h0.294l-0.352 0.939v0.58h-0.307v-0.58zM16.574 16.288v0.079h-0.261v0.618h-0.109v-0.618h-0.262v-0.079h0.632zM17.392 16.986h-0.085c-0.001 0-0.002 0-0.002 0-0.008 0-0.015-0.003-0.021-0.007l0 0c-0.006-0.004-0.011-0.009-0.014-0.016l-0-0-0.075-0.166h-0.362l-0.075 0.166c-0.002 0.007-0.006 0.014-0.012 0.019v0c-0.006 0.004-0.014 0.007-0.022 0.007-0.001 0-0.001-0-0.002-0h-0.084l0.32-0.697h0.111l0.324 0.695zM16.862 16.727h0.302l-0.128-0.284c-0.008-0.018-0.016-0.040-0.023-0.062l-0.001-0.004c-0.005 0.013-0.008 0.026-0.012 0.037l-0.012 0.029-0.127 0.283zM17.943 16.917c0.020 0.001 0.040 0.001 0.060 0 0.017-0.002 0.034-0.004 0.051-0.008 0.016-0.003 0.031-0.008 0.046-0.013s0.028-0.011 0.043-0.017v-0.157h-0.128c-0 0-0.001 0-0.001 0-0.006 0-0.012-0.002-0.016-0.006l0 0c-0.002-0.001-0.004-0.003-0.005-0.006l-0-0c-0.001-0.002-0.002-0.004-0.002-0.006 0-0 0-0 0-0.001v0-0.053h0.248v0.267c-0.039 0.024-0.084 0.044-0.131 0.056l-0.003 0.001c-0.026 0.007-0.053 0.011-0.080 0.015-0.031 0.003-0.062 0.004-0.093 0.004-0.001 0-0.003 0-0.004 0-0.056 0-0.11-0.010-0.16-0.027l0.003 0.001c-0.049-0.017-0.092-0.042-0.129-0.073l0.001 0c-0.034-0.030-0.062-0.067-0.082-0.108l-0.001-0.002c-0.019-0.041-0.029-0.089-0.029-0.14 0-0.002 0-0.003 0-0.005v0c-0-0.001-0-0.003-0-0.004 0-0.051 0.011-0.1 0.030-0.144l-0.001 0.002c0.018-0.041 0.047-0.079 0.082-0.11s0.080-0.056 0.128-0.072c0.055-0.018 0.113-0.027 0.171-0.026 0.030 0 0.059 0.002 0.089 0.006 0.026 0.004 0.052 0.010 0.076 0.018 0.023 0.007 0.044 0.017 0.064 0.028s0.038 0.023 0.056 0.036l-0.031 0.043c-0.003 0.004-0.006 0.007-0.010 0.009l-0 0c-0.004 0.002-0.009 0.004-0.015 0.004h-0c-0.007-0-0.014-0.002-0.020-0.006l0 0c-0.013-0.006-0.023-0.012-0.033-0.018l0.002 0.001c-0.012-0.007-0.026-0.013-0.041-0.018l-0.002-0.001c-0.016-0.006-0.036-0.011-0.056-0.015l-0.002-0c-0.023-0.004-0.050-0.006-0.077-0.006-0.002 0-0.003 0-0.005 0h0c-0.001 0-0.003-0-0.004-0-0.043 0-0.084 0.007-0.122 0.020l0.003-0.001c-0.036 0.012-0.068 0.031-0.094 0.055-0.025 0.024-0.045 0.053-0.059 0.085l-0.001 0.002c-0.014 0.035-0.021 0.074-0.021 0.116s0.008 0.082 0.022 0.118l-0.001-0.002c0.014 0.033 0.036 0.063 0.064 0.088 0.026 0.024 0.058 0.043 0.093 0.055 0.041 0.012 0.084 0.017 0.127 0.014zM18.962 16.906h0.349v0.079h-0.456v-0.697h0.109l-0.003 0.618zM19.675 16.986h-0.109v-0.697h0.109v0.697zM20.081 16.292c0.007 0.003 0.012 0.007 0.017 0.013l0 0 0.467 0.526c-0-0.004-0-0.008-0-0.012s0-0.009 0-0.013l-0 0.001v-0.52h0.095v0.7h-0.055c-0.001 0-0.002 0-0.004 0-0.007 0-0.014-0.002-0.021-0.004l0 0c-0.007-0.003-0.012-0.008-0.017-0.013l-0-0-0.467-0.525v0.542h-0.091v-0.697h0.057c0.006 0 0.012 0.001 0.018 0.003zM21.466 16.288v0.077h-0.387v0.23h0.314v0.074h-0.314v0.238h0.387v0.077h-0.5v-0.696h0.5zM10.007 11.982l4.856 1.19v4.171l-4.856-1.19v-4.172zM9.695 11.627v4.73l5.478 1.343v-4.729l-5.478-1.344z"></path>
<path fill="#afb1b8" style="fill: var(--color1, #afb1b8)" d="M12.631 19.895l-5.478-1.344v-4.729l5.478 1.344v4.73z"></path>
<path fill="#afb1b8" style="fill: var(--color1, #afb1b8)" d="M9.786 11.929l4.792 1.175-2.038 1.76-4.793-1.176 2.039-1.759zM9.695 11.627l-2.543 2.195 5.478 1.344 2.542-2.195-5.478-1.344zM12.939 19.629l2.234-1.929-2.234-0.548v2.477z"></path>
</symbol>
<symbol id="icon-client-three" viewBox="0 0 32 32">
<path fill="#afb1b8" style="fill: var(--color1, #afb1b8)" d="M12.876 19.595c0.003 0 0.006 0.001 0.009 0.002s0.005 0.003 0.007 0.005h-0l0.041 0.039c-0.032 0.032-0.071 0.057-0.116 0.075-0.046 0.017-0.098 0.027-0.153 0.027-0.004 0-0.007-0-0.011-0h0.001c-0.053 0.001-0.105-0.008-0.154-0.025-0.045-0.016-0.084-0.040-0.116-0.071l0 0c-0.032-0.030-0.057-0.066-0.074-0.107l-0.001-0.002c-0.017-0.040-0.026-0.087-0.026-0.136 0-0.001 0-0.003 0-0.004v0c-0-0.002-0-0.005-0-0.007 0-0.096 0.042-0.182 0.108-0.241l0-0c0.035-0.031 0.077-0.055 0.123-0.071 0.051-0.017 0.104-0.025 0.159-0.025 0.003-0 0.006-0 0.010-0 0.049 0 0.096 0.008 0.14 0.024l-0.003-0.001c0.041 0.015 0.078 0.037 0.111 0.063l-0.034 0.042c-0.002 0.003-0.005 0.006-0.009 0.007l-0 0c-0.003 0.002-0.008 0.003-0.012 0.003-0.001 0-0.001-0-0.002-0h0c-0.006-0-0.011-0.002-0.015-0.004l0 0-0.018-0.011-0.026-0.014c-0.023-0.011-0.051-0.020-0.079-0.025l-0.002-0c-0.017-0.003-0.037-0.005-0.057-0.005-0.002 0-0.003 0-0.005 0h0c-0.001 0-0.002-0-0.004-0-0.039 0-0.077 0.007-0.112 0.020l0.002-0.001c-0.035 0.012-0.064 0.030-0.090 0.053l0-0c-0.026 0.024-0.045 0.053-0.058 0.084s-0.021 0.068-0.021 0.107c0 0.001 0 0.002 0 0.004v-0c-0 0.001-0 0.003-0 0.004 0 0.039 0.008 0.076 0.022 0.11l-0.001-0.002c0.013 0.031 0.032 0.059 0.057 0.083 0.024 0.023 0.053 0.040 0.085 0.052s0.069 0.018 0.106 0.018c0.021 0 0.042-0.001 0.063-0.004 0.052-0.005 0.099-0.026 0.136-0.058l-0 0c0.005-0.004 0.012-0.007 0.019-0.007h0zM14.062 19.398c0 0.001 0 0.003 0 0.004 0 0.049-0.010 0.095-0.029 0.137l0.001-0.002c-0.018 0.043-0.044 0.078-0.077 0.107l-0 0c-0.034 0.030-0.075 0.054-0.119 0.070l-0.002 0.001c-0.047 0.016-0.1 0.025-0.156 0.025s-0.109-0.009-0.16-0.026l0.004 0.001c-0.047-0.017-0.087-0.041-0.121-0.071l0 0c-0.033-0.030-0.059-0.066-0.077-0.107l-0.001-0.002c-0.018-0.041-0.028-0.089-0.028-0.139s0.010-0.098 0.029-0.141l-0.001 0.002c0.018-0.041 0.044-0.078 0.078-0.109 0.034-0.030 0.075-0.053 0.12-0.068 0.047-0.016 0.1-0.025 0.156-0.025s0.11 0.009 0.159 0.026l-0.003-0.001c0.046 0.016 0.087 0.040 0.121 0.071s0.060 0.068 0.078 0.107c0.019 0.045 0.028 0.092 0.028 0.14zM13.954 19.398c0-0.002 0-0.004 0-0.006 0-0.038-0.007-0.074-0.020-0.108l0.001 0.002c-0.025-0.064-0.076-0.113-0.14-0.135l-0.002-0c-0.034-0.012-0.073-0.018-0.113-0.018s-0.080 0.007-0.116 0.019l0.003-0.001c-0.034 0.012-0.063 0.030-0.087 0.053l0-0c-0.024 0.023-0.043 0.051-0.055 0.082l-0.001 0.002c-0.012 0.033-0.020 0.071-0.020 0.111s0.007 0.078 0.020 0.114l-0.001-0.002c0.025 0.064 0.076 0.114 0.141 0.135l0.002 0c0.073 0.024 0.154 0.024 0.227 0 0.033-0.011 0.063-0.029 0.087-0.052 0.025-0.024 0.043-0.053 0.055-0.083 0.014-0.036 0.020-0.074 0.020-0.111zM14.871 19.515l0.011 0.025c0.004-0.009 0.008-0.017 0.012-0.025 0.005-0.010 0.009-0.018 0.014-0.025l-0.001 0.001 0.262-0.414c0.005-0.007 0.010-0.012 0.015-0.013s0.012-0.002 0.018-0.002c0.001 0 0.002 0 0.004 0h0.077v0.674h-0.092v-0.516c-0-0.003-0-0.008-0-0.012s0-0.008 0-0.012l-0 0.001-0.264 0.42c-0.004 0.006-0.009 0.012-0.015 0.015l-0 0c-0.006 0.004-0.014 0.006-0.022 0.006-0 0-0 0-0 0h-0.015c-0 0-0 0-0.001 0-0.008 0-0.016-0.002-0.022-0.006l0 0c-0.007-0.004-0.012-0.009-0.015-0.015l-0-0-0.272-0.423v0.541h-0.089v-0.672h0.077c0.001-0 0.002-0 0.004-0 0.006 0 0.013 0.001 0.018 0.002l-0.001-0c0.006 0.003 0.011 0.007 0.014 0.013l0.268 0.415c0.005 0.007 0.009 0.015 0.013 0.023l0 0.001zM15.858 19.482v0.252h-0.102v-0.673h0.229c0.043-0.001 0.086 0.004 0.128 0.015 0.033 0.008 0.064 0.023 0.090 0.042 0.022 0.017 0.039 0.039 0.051 0.065l0 0.001c0.012 0.027 0.018 0.057 0.017 0.086 0 0.001 0 0.003 0 0.004 0 0.061-0.029 0.115-0.074 0.149l-0 0c-0.026 0.020-0.057 0.035-0.091 0.044-0.035 0.010-0.074 0.016-0.116 0.016-0.003 0-0.006-0-0.009-0l-0.124-0.002zM15.858 19.41h0.124c0.027 0 0.054-0.003 0.080-0.010 0.022-0.006 0.041-0.016 0.058-0.029l-0 0c0.029-0.024 0.047-0.060 0.047-0.1 0-0.001 0-0.001 0-0.002v0c0-0.002 0-0.005 0-0.007 0-0.017-0.004-0.034-0.011-0.048l0 0.001c-0.009-0.018-0.021-0.034-0.036-0.046l-0-0c-0.034-0.023-0.076-0.037-0.122-0.037-0.006 0-0.011 0-0.017 0.001l0.001-0h-0.124v0.277zM17.237 19.735h-0.081c-0 0-0.001 0-0.002 0-0.008 0-0.015-0.002-0.021-0.006l0 0c-0.006-0.004-0.010-0.009-0.013-0.015l-0-0-0.070-0.163h-0.351l-0.072 0.163c-0.006 0.013-0.020 0.022-0.035 0.022-0 0-0.001 0-0.001 0h-0.081l0.308-0.674h0.107l0.312 0.674zM16.729 19.485h0.29l-0.122-0.274c-0.009-0.021-0.017-0.042-0.023-0.063l-0.012 0.035c-0.004 0.011-0.008 0.021-0.011 0.029l-0.121 0.274zM17.681 19.064c0.006 0.003 0.011 0.007 0.015 0.012l0.449 0.508v-0.523h0.092v0.674h-0.051c-0 0-0.001 0-0.001 0-0.007 0-0.014-0.002-0.020-0.004l0 0c-0.006-0.003-0.012-0.007-0.017-0.012l-0-0-0.448-0.507c0 0.003 0 0.008 0 0.012s-0 0.008-0 0.012l0-0.001v0.501h-0.092v-0.674h0.054c0.006 0 0.013 0.001 0.018 0.003zM18.994 19.467v0.267h-0.103v-0.267l-0.284-0.406h0.092c0.001-0 0.001-0 0.002-0 0.007 0 0.014 0.002 0.020 0.006l-0-0c0.006 0.005 0.010 0.010 0.014 0.015l0.177 0.262c0.007 0.011 0.013 0.021 0.018 0.031s0.009 0.019 0.013 0.028l0.013-0.029c0.005-0.011 0.011-0.021 0.017-0.031l0.175-0.264c0.004-0.006 0.008-0.010 0.013-0.014l0-0c0.006-0.004 0.013-0.007 0.020-0.007 0.001 0 0.001 0 0.002 0h0.093l-0.284 0.408zM14.82 17.931c0.045 0.005 0.090 0.009 0.136 0.012 0.693-0.269 1.278-0.71 1.684-1.266s0.614-1.205 0.598-1.864l-0.763-0.663c0.155 0.702 0.082 1.427-0.21 2.095s-0.792 1.252-1.445 1.687z"></path>
<path fill="#afb1b8" style="fill: var(--color1, #afb1b8)" d="M14.548 17.9l0.021 0.004c0.697-0.433 1.229-1.038 1.526-1.737s0.346-1.459 0.141-2.182l-1.087-0.944c0.44 0.776 0.616 1.645 0.51 2.505s-0.491 1.676-1.111 2.354zM18.234 15.591c-0.185 0.724-0.633 1.377-1.279 1.862-0.176 0.134-0.375 0.26-0.585 0.368l-0.023 0.011c0.526-0.134 1.009-0.372 1.413-0.694s0.717-0.721 0.915-1.165l-0.441-0.383z"></path>
<path fill="#afb1b8" style="fill: var(--color1, #afb1b8)" d="M18.061 15.484l-0.628-0.545c-0.012 0.622-0.216 1.229-0.589 1.76s-0.904 0.964-1.536 1.256h0.003c0.141 0 0.281-0.008 0.421-0.022 0.591-0.209 1.112-0.543 1.519-0.97s0.685-0.935 0.81-1.479zM14.638 12.642l-0.749-0.651c-0.669 0.225-1.245 0.62-1.652 1.134s-0.625 1.122-0.627 1.746c0.002 0.689 0.269 1.358 0.759 1.9s1.172 0.927 1.941 1.094c0.687-0.727 1.089-1.625 1.148-2.564s-0.228-1.87-0.82-2.658zM19.791 15.384c-0.003-0.817-0.378-1.601-1.043-2.179s-1.567-0.904-2.508-0.906c-0.002 0-0.005 0-0.008 0-0.452 0-0.886 0.075-1.291 0.214l0.028-0.008 4.584 3.983c0.149-0.325 0.237-0.704 0.237-1.104v-0z"></path>
</symbol>
<symbol id="icon-client-two" viewBox="0 0 32 32">
<path fill="#afb1b8" style="fill: var(--color1, #afb1b8)" d="M15.457 11.47h-0.026c-0.033-0.002-0.074-0.003-0.116-0.004l-0.003-0h-0.086c-0.075 0-0.151 0.002-0.227 0.006-0.003-0-0.006-0-0.009-0s-0.006 0-0.009 0l0-0c-0.727 0.042-1.401 0.224-2.011 0.519l0.032-0.014-0.082 0.039v4.168l0.191-0.065c0.167-0.057 0.345-0.109 0.53-0.157 0.455-0.122 0.979-0.195 1.519-0.202l0.004-0v0.548c-0.068 0-0.134 0.002-0.2 0.006h-0.016c-0.428 0.024-0.829 0.088-1.215 0.189l0.042-0.009c-0.53 0.135-0.995 0.321-1.427 0.56l0.031-0.016v-5.345c0.422-0.251 0.91-0.455 1.427-0.588l0.039-0.008c0.414-0.111 0.889-0.176 1.38-0.178h0.082c0.096 0.002 0.19 0.007 0.278 0.013 0.232 0.016 0.462 0.053 0.688 0.11v0.539c-0.192-0.047-0.42-0.083-0.653-0.1l-0.014-0.001-0.014-0.001c-0.040-0.004-0.087-0.007-0.135-0.008l-0.002-0zM16.405 12.021c0.12 0.009 0.243 0.014 0.369 0.014 0.517-0.002 1.017-0.070 1.493-0.196l-0.041 0.009c0.53-0.135 0.995-0.322 1.427-0.56l-0.031 0.016v5.25c-0.422 0.251-0.91 0.455-1.427 0.587l-0.039 0.008c-0.414 0.111-0.889 0.176-1.38 0.178h-0.001c-0.010 0-0.022 0-0.034 0-0.36 0-0.709-0.045-1.043-0.13l0.029 0.006v-5.284c0.081 0.019 0.164 0.036 0.249 0.050 0.139 0.024 0.286 0.041 0.429 0.051zM19.077 12.062l-0.191 0.064c-0.175 0.059-0.352 0.112-0.529 0.159-0.474 0.127-1.019 0.201-1.581 0.203h-0.001c-0.124 0-0.238-0.003-0.349-0.011l-0.152-0.010v4.287l0.13 0.011c0.121 0.011 0.246 0.016 0.371 0.016 0.444-0.002 0.873-0.061 1.281-0.169l-0.035 0.008c0.373-0.095 0.698-0.215 1.005-0.364l-0.031 0.014 0.081-0.039v-4.169z"></path>
<path fill="#afb1b8" style="fill: var(--color1, #afb1b8)" d="M12.751 18.863c-0.051-0.053-0.123-0.086-0.202-0.086-0.004 0-0.007 0-0.010 0h0.001c-0.001-0-0.003-0-0.004-0-0.043 0-0.083 0.008-0.12 0.024l0.002-0.001c-0.072 0.029-0.128 0.086-0.156 0.157l-0.001 0.002c-0.015 0.038-0.022 0.078-0.022 0.118v0.714c-0.002 0.050 0.008 0.1 0.028 0.146 0.017 0.037 0.041 0.069 0.072 0.096 0.028 0.024 0.062 0.041 0.098 0.051 0.035 0.010 0.071 0.015 0.107 0.015 0.040 0 0.079-0.008 0.115-0.025 0.107-0.048 0.181-0.153 0.181-0.276v0-0.080h-0.187v0.064c0 0.001 0 0.003 0 0.004 0 0.021-0.004 0.042-0.011 0.060l0-0.001c-0.006 0.016-0.016 0.029-0.027 0.040l-0 0c-0.021 0.017-0.049 0.027-0.078 0.027h-0c-0.003 0-0.007 0.001-0.011 0.001-0.031 0-0.059-0.015-0.076-0.039l-0-0c-0.016-0.025-0.025-0.056-0.025-0.088 0-0.003 0-0.005 0-0.008v0-0.666c-0.001-0.037 0.007-0.073 0.023-0.107 0.017-0.026 0.047-0.044 0.080-0.044 0.004 0 0.008 0 0.012 0.001l-0-0c0.001-0 0.002-0 0.004-0 0.033 0 0.062 0.016 0.080 0.040l0 0c0.019 0.025 0.031 0.057 0.031 0.092 0 0.001-0 0.003-0 0.004v-0 0.062h0.185v-0.073c0-0.001 0-0.002 0-0.003 0-0.044-0.008-0.086-0.024-0.124l0.001 0.002c-0.015-0.039-0.036-0.073-0.063-0.101l0 0zM13.86 18.856c-0.057-0.048-0.131-0.078-0.212-0.079h-0c-0.038 0-0.076 0.007-0.111 0.020-0.077 0.028-0.138 0.084-0.17 0.156l-0.001 0.002c-0.019 0.043-0.028 0.091-0.027 0.138v0.685c-0.001 0.048 0.008 0.096 0.027 0.14 0.017 0.037 0.041 0.069 0.072 0.096 0.029 0.026 0.062 0.047 0.099 0.060s0.073 0.020 0.111 0.020c0.082-0 0.156-0.031 0.213-0.081l-0 0c0.030-0.027 0.054-0.059 0.070-0.096 0.019-0.044 0.028-0.092 0.027-0.14v-0.685c0-0.002 0-0.004 0-0.006 0-0.048-0.010-0.093-0.028-0.134l0.001 0.002c-0.017-0.039-0.041-0.072-0.070-0.1l-0-0zM13.772 19.779c0 0.003 0 0.007 0 0.011 0 0.035-0.014 0.066-0.037 0.089l-0 0c-0.024 0.020-0.054 0.032-0.088 0.032s-0.064-0.012-0.088-0.032l0 0c-0.023-0.022-0.038-0.054-0.038-0.088 0-0.004 0-0.008 0.001-0.011l-0 0v-0.685c-0-0.003-0-0.007-0-0.011 0-0.035 0.014-0.066 0.037-0.088l0-0c0.024-0.020 0.054-0.032 0.088-0.032s0.064 0.012 0.088 0.032l-0-0c0.023 0.022 0.038 0.054 0.038 0.088 0 0.004-0 0.007-0.001 0.011l0-0v0.685zM15.316 20.085v-1.297h-0.179l-0.236 0.686h-0.003l-0.238-0.686h-0.178v1.297h0.185v-0.789h0.003l0.181 0.558h0.092l0.183-0.558h0.003v0.789h0.185zM16.369 18.879c-0.028-0.032-0.065-0.056-0.105-0.071-0.038-0.013-0.082-0.020-0.127-0.020-0.003 0-0.005 0-0.007 0h-0.275v1.297h0.185v-0.507h0.095c0.058 0.003 0.115-0.010 0.167-0.035 0.042-0.024 0.077-0.058 0.101-0.098l0.001-0.001c0.021-0.034 0.036-0.073 0.042-0.113s0.010-0.088 0.010-0.136c0-0.004-0-0.008-0-0.012v0.001c0.002-0.062-0.004-0.125-0.018-0.185-0.013-0.047-0.037-0.087-0.068-0.119l0 0zM16.273 19.274c-0.001 0.025-0.007 0.048-0.018 0.069l0-0.001c-0.011 0.020-0.027 0.036-0.047 0.045l-0.001 0c-0.023 0.011-0.049 0.017-0.078 0.017-0.003 0-0.007-0-0.010-0l0 0h-0.084v-0.441h0.095c0.003-0 0.006-0 0.009-0 0.027 0 0.053 0.006 0.076 0.017l-0.001-0c0.019 0.011 0.034 0.027 0.043 0.047l0 0.001c0.010 0.023 0.016 0.047 0.016 0.072v0.086c0 0.030 0.002 0.061 0 0.089h-0.002zM17.244 18.788h-0.152l-0.286 1.297h0.185l0.054-0.279h0.252l0.054 0.279h0.185l-0.293-1.297zM17.073 19.629l0.091-0.47h0.003l0.090 0.47h-0.185zM18.438 19.569h-0.003l-0.279-0.781h-0.178v1.297h0.185v-0.78h0.004l0.282 0.78h0.174v-1.297h-0.185v0.781zM19.567 18.788l-0.149 0.516h-0.004l-0.149-0.516h-0.196l0.254 0.749v0.548h0.185v-0.548l0.254-0.749h-0.196zM12.235 20.451h0.089v0.25h0.060v-0.25h0.088v-0.051h-0.238v0.051zM12.984 20.399l-0.117 0.301h0.064l0.025-0.069h0.12l0.026 0.069h0.066l-0.12-0.301h-0.064zM12.975 20.581l0.041-0.112 0.041 0.112h-0.082zM13.724 20.59h0.070v0.039c-0.019 0.016-0.044 0.025-0.072 0.025h-0c-0.001 0-0.003 0-0.004 0-0.024 0-0.046-0.011-0.060-0.029l-0-0c-0.014-0.020-0.022-0.045-0.022-0.072 0-0.002 0-0.005 0-0.007v0c0-0.067 0.029-0.101 0.087-0.101 0.002-0 0.004-0 0.007-0 0.030 0 0.055 0.020 0.062 0.048l0 0 0.059-0.011c-0.013-0.059-0.055-0.088-0.128-0.088-0.001-0-0.003-0-0.004-0-0.039 0-0.074 0.015-0.101 0.039l0-0c-0.027 0.027-0.044 0.064-0.044 0.105 0 0.004 0 0.008 0 0.012l-0-0c-0 0.002-0 0.005-0 0.007 0 0.040 0.015 0.078 0.039 0.106l-0-0c0.027 0.027 0.064 0.044 0.105 0.044 0.003 0 0.007-0 0.010-0l-0 0c0.002 0 0.003 0 0.005 0 0.047 0 0.090-0.018 0.123-0.048l-0 0v-0.119h-0.13v0.051zM14.48 20.399h-0.061v0.301h0.211v-0.051h-0.15v-0.25zM15.118 20.399h-0.061v0.301h0.061v-0.301zM15.743 20.6l-0.123-0.201h-0.059v0.301h0.056v-0.197l0.121 0.197h0.061v-0.301h-0.056v0.201zM16.308 20.568h0.15v-0.051h-0.15v-0.066h0.161v-0.051h-0.222v0.301h0.229v-0.051h-0.168v-0.081zM17.678 20.518h-0.119v-0.119h-0.060v0.301h0.060v-0.132h0.119v0.132h0.061v-0.301h-0.061v0.119zM18.246 20.568h0.151v-0.051h-0.151v-0.066h0.162v-0.051h-0.222v0.301h0.228v-0.051h-0.168v-0.081zM19.016 20.568c0.053-0.008 0.079-0.036 0.079-0.084 0-0.003 0.001-0.006 0.001-0.009 0-0.024-0.012-0.045-0.030-0.058l-0-0c-0.022-0.011-0.049-0.018-0.076-0.018-0.004 0-0.008 0-0.012 0l0.001-0h-0.128v0.301h0.061v-0.126h0.012c0.001-0 0.003-0 0.005-0 0.012 0 0.023 0.003 0.033 0.007l-0-0c0.009 0.005 0.016 0.013 0.021 0.022l0.066 0.096h0.072l-0.037-0.059c-0.017-0.029-0.039-0.054-0.066-0.072l-0.001-0zM18.955 20.526h-0.045v-0.075h0.048c0.004-0 0.008-0.001 0.013-0.001 0.017 0 0.034 0.003 0.050 0.008l-0.001-0c0.008 0.007 0.013 0.018 0.013 0.030 0 0.007-0.002 0.013-0.005 0.019l0-0c-0.003 0.005-0.007 0.010-0.011 0.013l-0 0c-0.015 0.005-0.032 0.008-0.050 0.008-0.004 0-0.008-0-0.012-0l0.001 0zM19.597 20.568h0.15v-0.051h-0.15v-0.066h0.162v-0.051h-0.223v0.301h0.229v-0.051h-0.168v-0.081z"></path>
</symbol>
<symbol id="icon-cont-envelope" viewBox="0 0 32 32">
<path fill="#757575" style="fill: var(--color3, #757575)" d="M29 4h-26c-1.654 0-3 1.346-3 3v18c0 1.654 1.346 3 3 3h26c1.654 0 3-1.346 3-3v-18c0-1.654-1.346-3-3-3zM29 6c0.136 0 0.266 0.028 0.384 0.078l-13.384 11.6-13.384-11.6c0.113-0.049 0.245-0.078 0.384-0.078h26zM29 26h-26c-0.552 0-1-0.448-1-1v0-16.81l13.344 11.566c0.175 0.152 0.404 0.245 0.656 0.245s0.481-0.093 0.657-0.246l-0.001 0.001 13.344-11.566v16.81c0 0.552-0.448 1-1 1v0z"></path>
</symbol>
<symbol id="icon-cont-smartphone" viewBox="0 0 32 32">
<path fill="#757575" style="fill: var(--color3, #757575)" d="M23 0h-14c-1.654 0-3 1.346-3 3v26c0 1.654 1.346 3 3 3h14c1.654 0 3-1.346 3-3v-26c0-1.654-1.346-3-3-3zM9 2h14c0.552 0 1 0.448 1 1v21h-16v-21c0-0.552 0.448-1 1-1zM23 30h-14c-0.552 0-1-0.448-1-1v-3h16v3c0 0.552-0.448 1-1 1z"></path>
<path fill="#757575" style="fill: var(--color3, #757575)" d="M10.707 27.478c0.391 0.365 0.391 0.956 0 1.321s-1.024 0.365-1.414 0c-0.391-0.365-0.391-0.956 0-1.321s1.024-0.365 1.414 0z"></path>
</symbol>
<symbol id="icon-feach-antenna" viewBox="0 0 32 32">
<path fill="#212121" style="fill: var(--color4, #212121)" d="M30.773 22.098l-8.443-8.505 0.937-4.616c0.225 0.090 0.485 0.144 0.758 0.146h0.007c0.008 0 0.017 0 0.026 0 1.192 0 2.159-0.967 2.159-2.159s-0.967-2.159-2.159-2.159c-1.192 0-2.159 0.967-2.159 2.159 0 0.259 0.046 0.508 0.13 0.739l-0.005-0.015-4.96 0.606-8.091-8.133c-0.096-0.098-0.229-0.159-0.376-0.16h-0c-0.14 0.001-0.274 0.057-0.373 0.155l-1.512 1.504c-0.096 0.097-0.156 0.23-0.156 0.377s0.060 0.281 0.156 0.377v0l0.814 0.825c-1.143 2.062-1.816 4.522-1.816 7.139 0 4.106 1.656 7.824 4.336 10.525l-0.001-0.001c0.043 0.041 0.092 0.074 0.146 0.097-0.032 0.164-0.051 0.353-0.052 0.546v6.188h-6.4c-1.472 0.001-2.666 1.194-2.667 2.666v1.067c0 0.295 0.239 0.534 0.534 0.534h24.534c0.294 0 0.533-0.239 0.533-0.534v-1.067c-0.002-1.472-1.195-2.665-2.666-2.666h-6.4v-2.742c1.003 0.21 2.024 0.317 3.049 0.32 2.58-0.003 5.005-0.663 7.117-1.822l-0.077 0.039 0.818 0.823c0.099 0.101 0.235 0.159 0.376 0.16 0.14-0.001 0.274-0.057 0.373-0.155l1.512-1.504c0.096-0.097 0.156-0.23 0.156-0.377s-0.060-0.281-0.156-0.377v0zM23.28 6.233c0.193-0.192 0.459-0.31 0.752-0.31 0.589 0 1.067 0.478 1.067 1.066s-0.477 1.066-1.067 1.066c-0 0-0 0-0 0h-0.004c-0.587-0.003-1.061-0.479-1.061-1.066 0-0.295 0.12-0.563 0.314-0.756l0-0h-0.002zM22.024 9.737l-0.598 2.946-1.175-1.183 1.774-1.763zM21.419 8.835l-1.92 1.909-1.486-1.493 3.406-0.416zM24.004 28.8c0.884 0 1.6 0.716 1.6 1.6v0 0.534h-23.466v-0.534c0-0.884 0.716-1.6 1.6-1.6v0h20.267zM16.538 26.666v1.067h-5.334v-1.067h5.334zM11.204 25.6v-4.053c0-1.294 1.196-2.346 2.667-2.346s2.667 1.053 2.667 2.346v4.053h-5.334zM17.604 23.904v-2.357c0-1.882-1.675-3.413-3.733-3.413-0.017-0-0.038-0-0.058-0-1.353 0-2.54 0.707-3.213 1.771l-0.009 0.016c-2.36-2.482-3.812-5.846-3.812-9.55 0-2.314 0.567-4.496 1.569-6.414l-0.036 0.077 18.602 18.709c-1.823 0.947-3.979 1.502-6.266 1.502-1.079 0-2.128-0.124-3.136-0.357l0.093 0.018zM28.893 23.22l-21.057-21.181 0.754-0.752 7.935 7.98c0.004 0 0.006 0.007 0.010 0.010l13.114 13.191-0.757 0.752z"></path>
<path fill="#2196f3" style="fill: var(--color2, #2196f3)" d="M13.876 20.267h-0.005c-0.001 0-0.002 0-0.002 0-0.884 0-1.6 0.716-1.6 1.6s0.715 1.599 1.597 1.6h0.005c0.001 0 0.001 0 0.002 0 0.884 0 1.6-0.716 1.6-1.6s-0.715-1.599-1.598-1.6h-0zM14.249 22.245c-0.096 0.096-0.229 0.155-0.376 0.155-0.295 0-0.534-0.239-0.534-0.534s0.238-0.533 0.532-0.533h0c0.293 0.001 0.531 0.239 0.531 0.533 0 0.148-0.060 0.282-0.157 0.378l-0 0h0.005z"></path>
</symbol>
<symbol id="icon-feach-astronaut" viewBox="0 0 32 32">
<path fill="#2196f3" style="fill: var(--color2, #2196f3)" d="M31.974 4.524c-0.064-0.191-0.227-0.332-0.427-0.362l-0.003-0-1.911-0.278-0.855-1.731c-0.179-0.365-0.777-0.365-0.956 0l-0.855 1.731-1.911 0.278c-0.26 0.039-0.457 0.26-0.457 0.528 0 0.15 0.062 0.285 0.161 0.382l1.383 1.348-0.326 1.903c-0.034 0.2 0.048 0.402 0.212 0.522 0.166 0.12 0.383 0.135 0.562 0.040l1.709-0.899 1.709 0.899c0.072 0.038 0.157 0.061 0.247 0.061 0.295 0 0.534-0.239 0.534-0.534 0-0.031-0.003-0.062-0.008-0.092l0 0.003-0.326-1.903 1.383-1.348c0.099-0.097 0.161-0.233 0.161-0.382 0-0.059-0.009-0.115-0.027-0.168l0.001 0.004zM29.511 5.851c-0.126 0.122-0.183 0.299-0.153 0.472l0.191 1.114-1-0.526c-0.072-0.039-0.158-0.062-0.249-0.062s-0.177 0.023-0.252 0.063l0.003-0.001-1 0.526 0.191-1.114c0.005-0.027 0.008-0.059 0.008-0.091 0-0.149-0.061-0.285-0.16-0.381l-0-0-0.811-0.79 1.119-0.162c0.174-0.025 0.324-0.134 0.402-0.292l0.5-1.013 0.5 1.013c0.078 0.158 0.228 0.267 0.402 0.292l1.119 0.162-0.809 0.79zM26.134 20.522h-1.067v1.067h1.067v-1.067zM26.134 22.656h-1.067v1.066h1.067v-1.066zM27.2 21.589h-1.067v1.067h1.067v-1.067zM25.067 21.589h-1.067v1.067h1.067v-1.067zM22.4 26.389h-1.067v1.067h1.067v-1.067zM22.4 28.523h-1.067v1.067h1.067v-1.067zM23.467 27.456h-1.067v1.067h1.067v-1.067zM21.334 27.456h-1.067v1.067h1.067v-1.067zM16 24.256h-1.066v1.067h1.066v-1.067zM16 26.389h-1.066v1.067h1.066v-1.067zM17.067 25.322h-1.067v1.067h1.067v-1.067zM14.934 25.322h-1.067v1.067h1.067v-1.067zM5.867 6.122h-1.066v1.066h1.066v-1.066zM5.867 8.256h-1.066v1.066h1.066v-1.066zM6.933 7.189h-1.067v1.067h1.066v-1.067zM4.8 7.189h-1.067v1.067h1.067v-1.067z"></path>
<path fill="#212121" style="fill: var(--color4, #212121)" d="M24.715 14.16c-0.28-0.376-0.698-0.636-1.179-0.703l-0.009-0.001c-0.076-0.012-0.164-0.018-0.254-0.018-0.411 0-0.789 0.139-1.090 0.373l0.004-0.003-1.253 0.96-1.898 1.417-1.358-0.541c2.421-1.086 4.113-3.508 4.113-6.32 0-3.823-3.122-6.934-6.961-6.934s-6.961 3.11-6.961 6.934c0 1.386 0.415 2.674 1.12 3.759l-2.768-0.024c-0.009 0-0.016 0.005-0.023 0.005-0.057 0.003-0.11 0.014-0.159 0.033l0.004-0.001c-0.013 0.005-0.026 0.007-0.038 0.013-0.006 0.003-0.013 0.003-0.019 0.006l-3.233 1.596c-0 0-0.001 0-0.001 0.001l-1.893 0.91c-0.024 0.011-0.045 0.023-0.065 0.036l0.001-0.001c-0.482 0.324-0.795 0.867-0.795 1.483 0 0.297 0.073 0.577 0.201 0.823l-0.005-0.010c0.22 0.424 0.592 0.742 1.043 0.885l0.013 0.003c0.161 0.053 0.345 0.083 0.537 0.083 0.308 0 0.598-0.078 0.851-0.216l-0.009 0.005 1.388-0.738 2.264-1.169 1.357-0.008-5.442 5.415c0 0.001-0.001 0.001-0.001 0.001l-1.339 1.333c-0.303 0.299-0.491 0.714-0.491 1.173 0 0.002 0 0.003 0 0.005v-0c0.002 0.919 0.748 1.664 1.667 1.664 0.001 0 0.002 0 0.002 0h-0c0.428 0 0.854-0.162 1.18-0.485l1.314-1.309 1.741-1.3 0.901 0.897-3.102 3.088c-0.303 0.299-0.491 0.714-0.491 1.173 0 0.001 0 0.003 0 0.004v-0c0 0.445 0.174 0.864 0.49 1.179 0.302 0.3 0.717 0.485 1.176 0.485 0.001 0 0.002 0 0.003 0h-0c0.427 0 0.855-0.162 1.18-0.485l4.488-4.472c0.007-0.006 0.016-0.009 0.022-0.016l5.166-5.658 3.471 0.494c0.025 0.004 0.050 0.006 0.075 0.006 0.064 0 0.127-0.016 0.187-0.038 0.017-0.006 0.032-0.015 0.049-0.023 0.019-0.010 0.039-0.015 0.058-0.027l3.213-2.133c0.012-0.008 0.018-0.021 0.029-0.030 0.013-0.010 0.029-0.014 0.041-0.026l1.271-1.191c0.348-0.326 0.564-0.787 0.564-1.3 0-0.4-0.132-0.769-0.355-1.066l0.003 0.005zM2.13 17.77c-0.098 0.054-0.215 0.086-0.34 0.086-0.078 0-0.153-0.013-0.224-0.036l0.005 0.001c-0.294-0.093-0.504-0.364-0.504-0.683 0-0.235 0.114-0.444 0.289-0.575l0.002-0.001 1.314-0.632 0.316 0.924 0.133 0.389-0.992 0.527zM5.627 15.942l-1.548 0.8-0.255-0.746-0.184-0.537 2.027-1.001-0.040 1.484zM20.727 9.322c0 0.918-0.219 1.785-0.599 2.56l-4.181-1.899c-0.044-0.575-0.342-1.072-0.782-1.384l-0.006-0.004 1.464-4.861c2.377 0.757 4.104 2.975 4.104 5.588zM8.938 9.322c0-3.235 2.644-5.867 5.894-5.867 0.253 0 0.5 0.022 0.745 0.053l-1.432 4.753c-0.019 0-0.037-0.006-0.057-0.006-0 0-0.001 0-0.001 0-1.032 0-1.869 0.835-1.872 1.867v0c0.003 1.031 0.84 1.867 1.872 1.867 0 0 0 0 0.001 0h-0c0.695 0 1.295-0.383 1.618-0.944l3.863 1.755c-1.075 1.447-2.795 2.39-4.737 2.39-3.25 0-5.894-2.632-5.894-5.867zM14.895 10.122c0 0.441-0.362 0.8-0.806 0.8-0 0-0.001 0-0.001 0-0.443 0-0.802-0.358-0.804-0.8v-0c0-0.441 0.361-0.8 0.806-0.8s0.806 0.359 0.806 0.8zM2.464 25.146c-0.11 0.109-0.261 0.176-0.428 0.176s-0.317-0.067-0.427-0.175l0 0c-0.109-0.108-0.176-0.257-0.176-0.422s0.067-0.314 0.176-0.422l0-0 0.962-0.959 0.852 0.848-0.959 0.954zM5.678 28.88c-0.11 0.109-0.261 0.176-0.428 0.176s-0.317-0.067-0.427-0.175l0 0c-0.109-0.108-0.176-0.257-0.176-0.422s0.067-0.314 0.176-0.422l0-0 0.963-0.959 0.852 0.848-0.96 0.955zM9.16 25.411l-0.001 0.001-1.765 1.76-0.852-0.848 1.765-1.757c0.040-0.040 0.065-0.088 0.090-0.136 0.007-0.014 0.020-0.026 0.026-0.040 0.016-0.041 0.019-0.085 0.026-0.128 0.003-0.025 0.014-0.048 0.014-0.073 0-0.035-0.013-0.070-0.020-0.105-0.006-0.032-0.006-0.064-0.019-0.096-0.025-0.053-0.055-0.098-0.092-0.138l0 0c-0.010-0.012-0.014-0.026-0.025-0.038h-0.001s0-0.001-0.001-0.002l-1.607-1.6c-0.017-0.017-0.039-0.024-0.058-0.038-0.025-0.021-0.054-0.040-0.084-0.056l-0.003-0.001c-0.026-0.012-0.058-0.023-0.090-0.031l-0.003-0.001c-0.030-0.009-0.065-0.017-0.101-0.020l-0.002-0c-0.007-0-0.015-0-0.023-0-0.026 0-0.051 0.002-0.075 0.005l0.003-0c-0.036 0.005-0.069 0.009-0.104 0.021s-0.064 0.027-0.094 0.045c-0.020 0.011-0.043 0.015-0.061 0.029l-1.774 1.324-0.901-0.897 2.399-2.386 4.36 4.289-0.928 0.919zM15.979 18.394c-0.016-0.002-0.030 0.004-0.046 0.003-0.008-0-0.017-0.001-0.027-0.001-0.031 0-0.062 0.003-0.092 0.008l0.003-0c-0.070 0.011-0.132 0.035-0.187 0.070l0.002-0.001c-0.030 0.018-0.057 0.037-0.083 0.061-0.013 0.011-0.028 0.016-0.040 0.029l-4.698 5.146-4.328-4.256 2.833-2.818c0.096-0.097 0.156-0.23 0.156-0.377 0-0.295-0.239-0.534-0.534-0.534-0.001 0-0.001 0-0.002 0h0l-2.219 0.013 0.028-1.607 3.104 0.027c1.264 1.297 3.027 2.101 4.978 2.101 0.001 0 0.002 0 0.003 0h-0c0.438 0 0.864-0.046 1.28-0.122 0.040 0.032 0.080 0.064 0.129 0.085l2.41 0.96 0.152 0.758 0.178 0.886-3.003-0.427zM20.020 18.572l-0.313-1.558 1.446-1.080 0.946 1.257-2.080 1.381zM23.773 15.741l-0.837 0.785-0.931-1.236 0.831-0.637c0.155-0.119 0.351-0.168 0.543-0.143 0.193 0.027 0.364 0.128 0.48 0.284 0.088 0.117 0.141 0.265 0.141 0.426 0 0.206-0.087 0.391-0.226 0.521l-0 0z"></path>
<path fill="#212121" style="fill: var(--color4, #212121)" d="M13.602 18.544l-2.143-2.134c-0.096-0.096-0.229-0.155-0.376-0.155s-0.28 0.059-0.376 0.155l-2.143 2.133c-0.097 0.097-0.156 0.23-0.156 0.378s0.060 0.281 0.156 0.378l-0-0 2.142 2.134c0.096 0.096 0.229 0.156 0.376 0.156s0.28-0.059 0.376-0.156v0l2.143-2.134c0.097-0.097 0.157-0.23 0.157-0.378s-0.060-0.281-0.157-0.378l-0-0zM11.083 20.303l-1.387-1.381 1.386-1.381 1.387 1.381-1.387 1.381zM17.164 5.071l-0.258 1.036c0.071 0.018 1.738 0.452 1.738 2.149h1.067c0-2.017-1.666-2.965-2.547-3.184zM19.711 9.322h-1.067v1.066h1.067v-1.066z"></path>
</symbol>
<symbol id="icon-feach-diagram" viewBox="0 0 32 32">
<path fill="#2196f3" style="fill: var(--color2, #2196f3)" d="M14.926 14.965h1.066v4.798h-1.066v-4.798zM19.19 17.097h1.066v2.665h-1.066v-2.665zM10.661 18.696h1.066v1.066h-1.066v-1.066zM7.463 18.163h1.066v1.599h-1.066v-1.599z"></path>
<path fill="#212121" style="fill: var(--color4, #212121)" d="M1.599 28.291h25.586c0 0 0 0 0 0 0.883 0 1.599-0.716 1.599-1.599v0-2.132c0-0.883-0.716-1.599-1.599-1.599v0h-0.533v-13.294l3.028-2.868c0.207 0.104 0.452 0.166 0.711 0.166 0.888 0 1.608-0.72 1.608-1.608s-0.72-1.608-1.608-1.608c-0.888 0-1.608 0.72-1.608 1.608 0 0.247 0.056 0.481 0.155 0.69l-0.004-0.010-2.281 2.162v-1.23c0-0.883-0.716-1.599-1.599-1.599v0h-21.323c-0.883 0-1.599 0.716-1.599 1.599v0 15.992h-0.533c-0.883 0-1.599 0.716-1.599 1.599v0 2.132c0 0.883 0.716 1.599 1.599 1.599v0zM30.384 4.837c0.294 0 0.533 0.239 0.533 0.533s-0.239 0.533-0.533 0.533v0c-0.294 0-0.533-0.239-0.533-0.533s0.239-0.533 0.533-0.533v0zM3.198 6.969c0-0.294 0.239-0.533 0.533-0.533h21.323c0.294 0 0.533 0.239 0.533 0.533v2.239l-1.066 1.013v-2.185c0-0.295-0.239-0.534-0.534-0.534h-19.189c-0.294 0-0.534 0.239-0.534 0.533v13.327c0 0.294 0.239 0.533 0.534 0.533h19.189c0.295 0 0.534-0.239 0.534-0.533v-9.675l1.066-1.010v12.283h-22.389v-15.991zM7.996 13.899c-0.001 0-0.003 0-0.005 0-0.883 0-1.599 0.716-1.599 1.599s0.716 1.599 1.599 1.599c0.432 0 0.824-0.172 1.112-0.45l-0 0 1.853 0.93c0.215 0.107 0.476 0.057 0.636-0.122l3.939-4.432 3.872 2.902c0.208 0.155 0.498 0.139 0.686-0.039l3.365-3.188v8.131h-18.123v-12.261h18.123v2.661l-3.771 3.572-3.904-2.927c-0.088-0.067-0.2-0.107-0.32-0.107-0.158 0-0.3 0.069-0.398 0.178l-0 0.001-3.993 4.493-1.493-0.746c0.011-0.064 0.017-0.128 0.020-0.193 0-0.883-0.716-1.599-1.599-1.599v0zM8.529 15.498c0 0.294-0.239 0.533-0.533 0.533s-0.533-0.239-0.533-0.533v0c0-0.294 0.239-0.533 0.533-0.533s0.533 0.239 0.533 0.533v0zM11.727 24.026h5.33v0.533c0 0.294-0.238 0.533-0.533 0.533h-4.265c-0.294 0-0.533-0.239-0.533-0.533v0-0.533zM1.067 24.56c0-0.294 0.238-0.533 0.533-0.533h9.062v0.533c0 0.883 0.716 1.599 1.599 1.599v0h4.265c0.883 0 1.599-0.716 1.599-1.599v0-0.533h9.062c0.294 0 0.533 0.239 0.533 0.533v2.132c0 0.294-0.239 0.533-0.533 0.533h-25.586c-0 0-0 0-0 0-0.294 0-0.533-0.239-0.533-0.533 0 0 0 0 0 0v0-2.132z"></path>
</symbol>
<symbol id="icon-feah-clock" viewBox="0 0 32 32">
<path fill="#212121" style="fill: var(--color4, #212121)" d="M31.296 15.301c-0.001-8.452-6.855-15.303-15.308-15.301s-15.303 6.855-15.301 15.308c0.002 6.788 4.422 12.543 10.541 14.545l0.108 0.031c0.061 0.019 0.123 0.029 0.187 0.029 0.12 0 0.238-0.032 0.342-0.094 0.135-0.080 0.236-0.207 0.283-0.357l3.865-12.25c1.054-0.004 1.906-0.859 1.906-1.913 0-1.056-0.856-1.913-1.913-1.913-0.303 0-0.59 0.071-0.845 0.196l0.011-0.005-5.106-5.107c-0.114-0.11-0.271-0.179-0.443-0.179-0.352 0-0.638 0.286-0.638 0.638 0 0.172 0.068 0.328 0.179 0.443l-0-0 5.103 5.109c-0.121 0.241-0.191 0.525-0.191 0.826 0 0.602 0.283 1.137 0.723 1.48l0.004 0.003-3.682 11.673c-7.278-2.681-11.004-10.754-8.324-18.032s10.754-11.004 18.032-8.323c7.278 2.681 11.004 10.754 8.323 18.032-1.345 3.581-4.003 6.406-7.374 7.938l-0.088 0.036-0.398-1.874c-0.063-0.291-0.318-0.506-0.624-0.506-0.164 0-0.313 0.062-0.426 0.163l0.001-0.001-3.837 3.426c-0.132 0.117-0.214 0.287-0.214 0.477 0 0.283 0.185 0.524 0.441 0.606l0.005 0.001 4.899 1.563c0.058 0.020 0.126 0.031 0.196 0.031 0.352 0 0.637-0.285 0.637-0.637 0-0.047-0.005-0.093-0.015-0.138l0.001 0.004-0.391-1.839c5.528-2.374 9.329-7.772 9.329-14.057 0-0.011 0-0.023-0-0.034v0.002zM15.992 14.664c0.352 0 0.638 0.286 0.638 0.638s-0.285 0.638-0.638 0.638v0c-0.352 0-0.638-0.286-0.638-0.638s0.286-0.638 0.638-0.638v0zM18.092 29.528l2.184-1.948 0.603 2.84-2.787-0.892z"></path>
<path fill="#2196f3" style="fill: var(--color2, #2196f3)" d="M15.354 3.185v1.275c0 0.352 0.286 0.638 0.638 0.638s0.638-0.285 0.638-0.638v0-1.275c0-0.352-0.285-0.638-0.638-0.638s-0.638 0.285-0.638 0.638v0zM3.876 14.664c-0.352 0-0.638 0.286-0.638 0.638s0.285 0.638 0.638 0.638h1.275c0.352 0 0.638-0.286 0.638-0.638s-0.285-0.638-0.638-0.638h-1.275zM28.108 15.939c0.352 0 0.638-0.286 0.638-0.638s-0.285-0.638-0.638-0.638h-1.275c-0.352 0-0.638 0.286-0.638 0.638s0.285 0.638 0.638 0.638h1.275z"></path>
</symbol>
<symbol id="icon-footer-facebook" viewBox="0 0 32 32">
<path fill="#fff" style="fill: var(--color5, #fff)" d="M21.329 5.313h2.921v-5.088c-0.504-0.069-2.237-0.225-4.256-0.225-4.212 0-7.097 2.649-7.097 7.519v4.481h-4.648v5.688h4.648v14.312h5.699v-14.311h4.46l0.708-5.688h-5.169v-3.919c0.001-1.644 0.444-2.769 2.735-2.769v0z"></path>
</symbol>
<symbol id="icon-footer-instagram" viewBox="0 0 32 32">
<path fill="#fff" style="fill: var(--color5, #fff)" d="M31.969 9.408c-0.075-1.7-0.35-2.869-0.744-3.882-0.406-1.075-1.032-2.038-1.851-2.838-0.8-0.813-1.769-1.444-2.832-1.844-1.019-0.394-2.182-0.669-3.882-0.744-1.713-0.081-2.257-0.1-6.601-0.1s-4.888 0.019-6.595 0.094c-1.7 0.075-2.869 0.35-3.882 0.744-1.075 0.406-2.038 1.031-2.838 1.85-0.813 0.8-1.444 1.769-1.844 2.832-0.394 1.019-0.669 2.182-0.744 3.882-0.081 1.713-0.1 2.257-0.1 6.601s0.019 4.888 0.094 6.595c0.075 1.7 0.35 2.869 0.744 3.882 0.406 1.075 1.038 2.038 1.85 2.838 0.8 0.813 1.769 1.444 2.832 1.844 1.019 0.394 2.182 0.669 3.882 0.744 1.706 0.075 2.25 0.094 6.595 0.094s4.888-0.019 6.595-0.094c1.7-0.075 2.869-0.35 3.882-0.744 2.151-0.832 3.851-2.532 4.682-4.682 0.394-1.019 0.669-2.182 0.744-3.882 0.075-1.707 0.094-2.251 0.094-6.595s-0.006-4.888-0.081-6.595zM29.087 22.473c-0.069 1.563-0.331 2.407-0.55 2.969-0.538 1.394-1.644 2.5-3.038 3.038-0.563 0.219-1.413 0.481-2.969 0.55-1.688 0.075-2.194 0.094-6.464 0.094s-4.782-0.019-6.464-0.094c-1.563-0.069-2.407-0.331-2.969-0.55-0.694-0.256-1.325-0.663-1.838-1.194-0.531-0.519-0.938-1.144-1.194-1.838-0.219-0.563-0.481-1.413-0.55-2.969-0.075-1.688-0.094-2.194-0.094-6.464s0.019-4.782 0.094-6.464c0.069-1.563 0.331-2.407 0.55-2.969 0.256-0.694 0.663-1.325 1.2-1.838 0.519-0.531 1.144-0.938 1.838-1.194 0.563-0.219 1.413-0.481 2.969-0.55 1.688-0.075 2.194-0.094 6.464-0.094 4.276 0 4.782 0.019 6.464 0.094 1.563 0.069 2.407 0.331 2.969 0.55 0.694 0.256 1.325 0.662 1.838 1.194 0.531 0.519 0.938 1.144 1.194 1.838 0.219 0.563 0.481 1.413 0.55 2.969 0.075 1.688 0.094 2.194 0.094 6.464s-0.019 4.77-0.094 6.458z"></path>
<path fill="#fff" style="fill: var(--color5, #fff)" d="M16.059 7.783c-4.538 0-8.22 3.682-8.22 8.22s3.682 8.22 8.22 8.22c4.539 0 8.22-3.682 8.22-8.22s-3.682-8.22-8.22-8.22zM16.059 21.335c-2.944 0-5.332-2.388-5.332-5.332s2.388-5.332 5.332-5.332c2.944 0 5.332 2.388 5.332 5.332s-2.388 5.332-5.332 5.332v0z"></path>
<path fill="#fff" style="fill: var(--color5, #fff)" d="M26.524 7.458c0 1.060-0.859 1.919-1.919 1.919s-1.919-0.859-1.919-1.919c0-1.060 0.859-1.919 1.919-1.919s1.919 0.859 1.919 1.919v0z"></path>
</symbol>
<symbol id="icon-footer-linkedin" viewBox="0 0 32 32">
<path fill="#fff" style="fill: var(--color5, #fff)" opacity="0.1" d="M32 16c0 4.418-1.791 8.418-4.686 11.314s-6.895 4.686-11.314 4.686-8.418-1.791-11.314-4.686c-2.895-2.895-4.686-6.895-4.686-11.314s1.791-8.418 4.686-11.314c2.895-2.895 6.895-4.686 11.314-4.686s8.418 1.791 11.314 4.686c2.895 2.895 4.686 6.895 4.686 11.314z"></path>
<path fill="#fff" style="fill: var(--color5, #fff)" d="M23.269 23.273v-0.001h0.004v-5.335c0-2.61-0.562-4.62-3.613-4.62-1.467 0-2.451 0.805-2.853 1.568h-0.042v-1.324h-2.893v9.711h3.012v-4.809c0-1.266 0.24-2.49 1.808-2.49 1.545 0 1.568 1.445 1.568 2.572v4.728h3.009z"></path>
<path fill="#fff" style="fill: var(--color5, #fff)" d="M8.967 13.562h3.016v9.711h-3.016v-9.711z"></path>
<path fill="#fff" style="fill: var(--color5, #fff)" d="M10.474 8.727c-0.964 0-1.747 0.782-1.747 1.747s0.782 1.763 1.747 1.763c0.964 0 1.747-0.799 1.747-1.763s-0.783-1.747-1.747-1.747v0z"></path>
</symbol>
<symbol id="icon-footer-twitter" viewBox="0 0 32 32">
<path fill="#fff" style="fill: var(--color5, #fff)" d="M32 6.078c-1.19 0.522-2.458 0.868-3.78 1.036 1.36-0.812 2.398-2.088 2.886-3.626-1.268 0.756-2.668 1.29-4.16 1.588-1.204-1.282-2.92-2.076-4.792-2.076-3.632 0-6.556 2.948-6.556 6.562 0 0.52 0.044 1.020 0.152 1.496-5.454-0.266-10.28-2.88-13.522-6.862-0.566 0.982-0.898 2.106-0.898 3.316 0 2.272 1.17 4.286 2.914 5.452-1.054-0.020-2.088-0.326-2.964-0.808 0 0.020 0 0.046 0 0.072 0 3.188 2.274 5.836 5.256 6.446-0.534 0.146-1.116 0.216-1.72 0.216-0.42 0-0.844-0.024-1.242-0.112 0.85 2.598 3.262 4.508 6.13 4.57-2.232 1.746-5.066 2.798-8.134 2.798-0.538 0-1.054-0.024-1.57-0.090 2.906 1.874 6.35 2.944 10.064 2.944 12.072 0 18.672-10 18.672-18.668 0-0.29-0.010-0.57-0.024-0.848 1.302-0.924 2.396-2.078 3.288-3.406z"></path>
</symbol>
<symbol id="icon-pikt-facebook" viewBox="0 0 32 32">
<path fill="#afb1b8" style="fill: var(--color1, #afb1b8)" d="M21.329 5.313h2.921v-5.088c-0.504-0.069-2.237-0.225-4.256-0.225-4.212 0-7.097 2.649-7.097 7.519v4.481h-4.648v5.688h4.648v14.312h5.699v-14.311h4.46l0.708-5.688h-5.169v-3.919c0.001-1.644 0.444-2.769 2.735-2.769z"></path>
</symbol>
<symbol id="icon-pikt-instagram" viewBox="0 0 32 32">
<path fill="#afb1b8" style="fill: var(--color1, #afb1b8)" d="M31.969 9.408c-0.075-1.7-0.35-2.869-0.744-3.882-0.406-1.075-1.032-2.038-1.851-2.838-0.8-0.813-1.769-1.444-2.832-1.844-1.019-0.394-2.182-0.669-3.882-0.744-1.713-0.081-2.257-0.1-6.601-0.1s-4.888 0.019-6.595 0.094c-1.7 0.075-2.869 0.35-3.882 0.744-1.075 0.406-2.038 1.031-2.838 1.85-0.813 0.8-1.444 1.769-1.844 2.832-0.394 1.019-0.669 2.182-0.744 3.882-0.081 1.713-0.1 2.257-0.1 6.601s0.019 4.888 0.094 6.595c0.075 1.7 0.35 2.869 0.744 3.882 0.406 1.075 1.038 2.038 1.85 2.838 0.8 0.813 1.769 1.444 2.832 1.844 1.019 0.394 2.182 0.669 3.882 0.744 1.706 0.075 2.25 0.094 6.595 0.094s4.888-0.019 6.595-0.094c1.7-0.075 2.869-0.35 3.882-0.744 2.151-0.832 3.851-2.532 4.682-4.682 0.394-1.019 0.669-2.182 0.744-3.882 0.075-1.707 0.094-2.251 0.094-6.595s-0.006-4.888-0.081-6.595zM29.087 22.473c-0.069 1.563-0.331 2.407-0.55 2.969-0.538 1.394-1.644 2.5-3.038 3.038-0.563 0.219-1.413 0.481-2.969 0.55-1.688 0.075-2.194 0.094-6.464 0.094s-4.782-0.019-6.464-0.094c-1.563-0.069-2.407-0.331-2.969-0.55-0.694-0.256-1.325-0.663-1.838-1.194-0.531-0.519-0.938-1.144-1.194-1.838-0.219-0.563-0.481-1.413-0.55-2.969-0.075-1.688-0.094-2.194-0.094-6.464s0.019-4.782 0.094-6.464c0.069-1.563 0.331-2.407 0.55-2.969 0.256-0.694 0.663-1.325 1.2-1.838 0.519-0.531 1.144-0.938 1.838-1.194 0.563-0.219 1.413-0.481 2.969-0.55 1.688-0.075 2.194-0.094 6.464-0.094 4.276 0 4.782 0.019 6.464 0.094 1.563 0.069 2.407 0.331 2.969 0.55 0.694 0.256 1.325 0.662 1.838 1.194 0.531 0.519 0.938 1.144 1.194 1.838 0.219 0.563 0.481 1.413 0.55 2.969 0.075 1.688 0.094 2.194 0.094 6.464s-0.019 4.77-0.094 6.458z"></path>
<path fill="#afb1b8" style="fill: var(--color1, #afb1b8)" d="M16.059 7.783c-4.538 0-8.22 3.682-8.22 8.22s3.682 8.22 8.22 8.22c4.539 0 8.22-3.682 8.22-8.22s-3.682-8.22-8.22-8.22zM16.059 21.335c-2.944 0-5.332-2.388-5.332-5.332s2.388-5.332 5.332-5.332c2.944 0 5.332 2.388 5.332 5.332s-2.388 5.332-5.332 5.332v0z"></path>
<path fill="#afb1b8" style="fill: var(--color1, #afb1b8)" d="M26.524 7.458c0 1.060-0.859 1.919-1.919 1.919s-1.919-0.859-1.919-1.919c0-1.060 0.859-1.919 1.919-1.919s1.919 0.859 1.919 1.919v0z"></path>
</symbol>
<symbol id="icon-pikt-linkedin" viewBox="0 0 32 32">
<path fill="#afb1b8" style="fill: var(--color1, #afb1b8)" d="M31.992 32v-0.001h0.008v-11.736c0-5.741-1.236-10.164-7.948-10.164-3.227 0-5.392 1.771-6.276 3.449h-0.093v-2.913h-6.364v21.364h6.627v-10.579c0-2.785 0.528-5.479 3.977-5.479 3.399 0 3.449 3.179 3.449 5.657v10.401h6.62z"></path>
<path fill="#afb1b8" style="fill: var(--color1, #afb1b8)" d="M0.528 10.636h6.635v21.364h-6.635v-21.364z"></path>
<path fill="#afb1b8" style="fill: var(--color1, #afb1b8)" d="M3.843 0c-2.121 0-3.843 1.721-3.843 3.843s1.721 3.879 3.843 3.879c2.121 0 3.843-1.757 3.843-3.879-0.001-2.121-1.723-3.843-3.843-3.843v0z"></path>
</symbol>
<symbol id="icon-pikt-twitter" viewBox="0 0 32 32">
<path fill="#afb1b8" style="fill: var(--color1, #afb1b8)" d="M32 6.078c-1.19 0.522-2.458 0.868-3.78 1.036 1.36-0.812 2.398-2.088 2.886-3.626-1.268 0.756-2.668 1.29-4.16 1.588-1.204-1.282-2.92-2.076-4.792-2.076-3.632 0-6.556 2.948-6.556 6.562 0 0.52 0.044 1.020 0.152 1.496-5.454-0.266-10.28-2.88-13.522-6.862-0.566 0.982-0.898 2.106-0.898 3.316 0 2.272 1.17 4.286 2.914 5.452-1.054-0.020-2.088-0.326-2.964-0.808 0 0.020 0 0.046 0 0.072 0 3.188 2.274 5.836 5.256 6.446-0.534 0.146-1.116 0.216-1.72 0.216-0.42 0-0.844-0.024-1.242-0.112 0.85 2.598 3.262 4.508 6.13 4.57-2.232 1.746-5.066 2.798-8.134 2.798-0.538 0-1.054-0.024-1.57-0.090 2.906 1.874 6.35 2.944 10.064 2.944 12.072 0 18.672-10 18.672-18.668 0-0.29-0.010-0.57-0.024-0.848 1.302-0.924 2.396-2.078 3.288-3.406z"></path>
</symbol>
</defs>
</svg>
