<svg xmlns="http://www.w3.org/2000/svg" aria-hidden="true" style="position:absolute;width:0;height:0;overflow:hidden"><defs><symbol id="icon-client-five" viewBox="0 0 32 32"><path fill="#afb1b8" d="M11.06 18.774a.27.27 0 0 1 .069.184v.014c0 .041-.009.08-.026.115l.001-.002a.305.305 0 0 1-.082.105h-.001a.487.487 0 0 1-.278.086l-.034-.001h.002-.547V18.11h.535l.032-.001a.49.49 0 0 1 .267.079l-.002-.001c.035.027.062.06.08.098s.026.079.024.12a.257.257 0 0 1-.062.178.301.301 0 0 1-.163.091.31.31 0 0 1 .184.1zm-.641-.176h.229a.234.234 0 0 0 .146-.039.14.14 0 0 0 .039-.051v-.001a.123.123 0 0 0 .011-.051l-.001-.012v-.01a.132.132 0 0 0-.011-.053v.001a.143.143 0 0 0-.038-.052.236.236 0 0 0-.132-.04l-.019.001h.001-.225v.306zm.397.447a.146.146 0 0 0 .042-.053v-.001a.128.128 0 0 0 .012-.056v-.019a.137.137 0 0 0-.013-.058v.001a.148.148 0 0 0-.043-.053.247.247 0 0 0-.14-.043h-.016.001-.24v.321h.243a.258.258 0 0 0 .154-.04zm1.338.23-.298-.456h-.112v.456h-.256V18.11h.485l.035-.001c.114 0 .219.038.304.101l-.001-.001a.355.355 0 0 1 .115.235l.001.024c0 .085-.03.163-.081.223v-.001a.4.4 0 0 1-.229.118h-.002l.317.466h-.279zm-.409-.615h.21c.146 0 .218-.059.218-.176v-.009a.144.144 0 0 0-.013-.062v.001a.173.173 0 0 0-.041-.06.24.24 0 0 0-.145-.048l-.021.001h.001-.212l.002.355zm1.81.38h-.511l-.09.235h-.269l.469-1.152h.29l.467 1.152h-.268l-.088-.235zm-.069-.176-.187-.492-.187.492h.373zm1.822.411h-.254l-.57-.792v.792h-.254v-1.166h.254l.57.797v-.797h.254v1.166zm1.451-.279a.535.535 0 0 1-.23.206.79.79 0 0 1-.337.074h-.022.001-.453v-1.165H16.192a.81.81 0 0 1 .341.074l-.005-.002a.529.529 0 0 1 .23.203.627.627 0 0 1 0 .612zm-.291-.028a.401.401 0 0 0 .112-.278.408.408 0 0 0-.112-.278.468.468 0 0 0-.289-.1l-.03.001h.001-.177v.754h.177a.466.466 0 0 0 .319-.1l-.001.001zm-2.754-7.341s3.283 1.135 3.213 2.777v2.777s-3.28-1.135-3.212-2.777l-.001-2.777zm6.137 4.903a4.768 4.768 0 0 1 2.086-.704v-.87a4.222 4.222 0 0 0-2.086 1.573z" style="fill:var(--color1, #afb1b8)"/><path fill="#afb1b8" d="M19.479 16.792c.507-.936 1.387-1.657 2.458-2.017V12.27s-4.675 1.616-4.576 3.955v3.954s.208-.072.536-.208c0-.126 0-.254.015-.382.097-1.085.66-2.091 1.567-2.797z" style="fill:var(--color1, #afb1b8)"/><path fill="#afb1b8" d="M19.034 18.261c.024-.274.079-.546.164-.81a3.649 3.649 0 0 0-.99 2.389c.39-.171.685-.316.974-.471l-.075.037a3.768 3.768 0 0 1-.073-1.145zm.186.015a3.607 3.607 0 0 0 .062 1.06l-.004-.023c1.277-.7 2.712-1.781 2.657-3.088v-.114a4.37 4.37 0 0 0-2.43 1.04 3.551 3.551 0 0 0-.284 1.111l-.001.014z" style="fill:var(--color1, #afb1b8)"/></symbol><symbol id="icon-client-four" viewBox="0 0 32 32"><path fill="#afb1b8" d="M10.569 14.325h-.001c-.451 0-.817.325-.817.726v.001c0 .401.366.726.817.726h.001c.451 0 .817-.325.817-.726 0-.401-.366-.727-.817-.727zm6.032-.232c-.001-.557-.251-1.091-.694-1.485s-1.044-.616-1.671-.617c-.627.001-1.228.223-1.672.617s-.693.928-.695 1.486v3.073s4.731-.468 4.732-3.072v-.001zm-8.507 4.081c.001.388.175.759.483 1.033s.726.429 1.163.43c.436-.001.854-.156 1.163-.43s.482-.645.483-1.033v-2.138s-3.292.326-3.292 2.138zm1.646.383a.461.461 0 0 1-.239-.065.408.408 0 0 1-.158-.169l-.001-.002a.333.333 0 0 1-.024-.223v.002c.017-.074.058-.143.118-.196a.455.455 0 0 1 .305-.112.49.49 0 0 1 .168.03l-.003-.001c.079.029.146.078.193.141a.356.356 0 0 1 .041.36.385.385 0 0 1-.093.124.461.461 0 0 1-.305.112v-.002zm3.327-.211h-.318v.328h-.165v-.803h.523v.134h-.357v.207h.318v.133zm.795-.055c0 .079-.014.148-.042.208a.318.318 0 0 1-.292.187h-.006a.319.319 0 0 1-.298-.183l-.001-.002a.472.472 0 0 1-.044-.198v-.047c0-.079.014-.149.042-.209s.069-.107.121-.138c.052-.032.112-.049.179-.049a.324.324 0 0 1 .299.187c.029.06.043.129.043.208v.036zm-.168-.036a.34.34 0 0 0-.045-.192.148.148 0 0 0-.123-.066H13.513a.148.148 0 0 0-.122.065v.001a.339.339 0 0 0-.046.19v.039c0 .082.015.145.045.191s.073.068.13.068h.007c.05 0 .095-.026.121-.065v-.001a.337.337 0 0 0 .045-.191v-.039zm.705.208v-.005a.086.086 0 0 0-.033-.067.412.412 0 0 0-.119-.053.92.92 0 0 1-.141-.057l.005.002c-.091-.049-.137-.116-.137-.199 0-.043.012-.082.036-.116s.06-.061.105-.08a.402.402 0 0 1 .307.002.238.238 0 0 1 .142.217h-.166c0-.037-.011-.065-.035-.085s-.056-.031-.098-.031a.152.152 0 0 0-.094.026.079.079 0 0 0-.034.065v.002c0 .026.013.048.039.066s.065.034.116.049c.094.028.163.063.206.105s.065.094.065.157c0 .069-.026.124-.079.164s-.123.059-.212.059a.405.405 0 0 1-.169-.034.271.271 0 0 1-.116-.092l-.001-.001a.236.236 0 0 1-.04-.132v-.005h.166c0 .088.053.133.159.133.039 0 .07-.008.092-.024a.079.079 0 0 0 .033-.064v-.003zm.882-.458h-.246v.669h-.166v-.669h-.242v-.134h.654v.134zm.578.321h-.318v.215h.373v.133h-.538v-.803h.537v.134h-.372v.191h.318v.13zm.45.054h-.132v.294h-.165v-.803h.298c.095 0 .168.021.219.063s.077.102.077.179a.243.243 0 0 1-.036.137.243.243 0 0 1-.106.087l-.002.001.174.328v.008h-.177l-.151-.294zm-.132-.134h.134c.041 0 .073-.01.096-.031a.116.116 0 0 0 .034-.082v-.006c0-.038-.011-.068-.032-.089s-.054-.033-.099-.033h-.133v.241zm1.003.145v.283h-.165v-.803h.313c.06 0 .113.011.159.033s.081.053.106.094c.024.04.037.087.037.138 0 .079-.027.141-.081.186s-.128.068-.223.068h-.145zm0-.134h.148c.044 0 .077-.01.1-.031s.035-.05.035-.088v-.006a.131.131 0 0 0-.035-.09.127.127 0 0 0-.096-.037h-.152v.252zm1.046.069h-.318v.215h.373v.133h-.538v-.803h.537v.134h-.372v.191h.318v.13zm.768-.321h-.246v.669h-.165v-.669h-.243v-.134h.654v.134zm.578.321h-.318v.215h.373v.133h-.538v-.803h.537v.134h-.372v.191h.318v.13zm.449.054h-.132v.294h-.165v-.803h.298c.095 0 .168.021.219.063s.077.102.077.179a.243.243 0 0 1-.036.137.243.243 0 0 1-.106.087l-.002.001.174.328v.008h-.177l-.151-.294zm-.131-.134h.133c.041 0 .074-.01.096-.031s.034-.051.034-.088c0-.038-.011-.068-.033-.089s-.054-.033-.099-.033h-.133v.241zm.972.218v-.005a.084.084 0 0 0-.033-.067.412.412 0 0 0-.119-.053.829.829 0 0 1-.141-.057l.005.002c-.091-.049-.137-.116-.137-.199 0-.043.012-.082.036-.116s.06-.061.105-.08a.402.402 0 0 1 .307.002.238.238 0 0 1 .142.217h-.165c0-.037-.012-.065-.035-.085s-.056-.031-.098-.031a.152.152 0 0 0-.094.026.081.081 0 0 0-.034.065v.002c0 .026.013.048.039.066s.065.034.116.049c.094.028.163.063.206.105s.065.094.065.157c0 .069-.026.124-.079.164s-.123.059-.212.059a.405.405 0 0 1-.169-.034.271.271 0 0 1-.116-.092l-.001-.001a.236.236 0 0 1-.04-.132v-.005h.166c0 .088.053.133.159.133.039 0 .07-.008.092-.024a.079.079 0 0 0 .033-.064v-.003z" style="fill:var(--color2, #2196f3)"/></symbol><symbol id="icon-client-one" viewBox="0 0 32 32"><path fill="#afb1b8" d="m13.176 11.671 1.319 1.249-2.449-.002v6.059h6.4V16.66l1.318 1.247V11.67h-6.588zm5.213 4.843-3.74-3.541h3.74v3.541zm-1.161 1.576H13.06v-4.075h.295v3.799h3.873v.276zm-3.184 1.694-.154.317-.154-.317h-.129l.225.423v.246h.117v-.246l.224-.423h-.129zm.194.669.054-.156h.259l.055.156h.121l-.253-.669h-.104l-.253.669h.121zm.183-.527.097.277h-.194l.097-.278zm.614.261a.15.15 0 0 0-.025.084v.001c0 .056.02.102.059.137s.093.053.159.053a.277.277 0 0 0 .171-.054l.038.045h.13l-.098-.116a.332.332 0 0 0 .058-.203h-.097a.265.265 0 0 1-.028.123l-.129-.152.046-.033a.252.252 0 0 0 .069-.069l.001-.001a.15.15 0 0 0 .021-.076v-.004a.136.136 0 0 0-.047-.103.167.167 0 0 0-.113-.043h-.007c-.054 0-.097.015-.129.046s-.048.072-.048.124c0 .021.005.044.015.067s.029.051.055.084a.402.402 0 0 0-.1.092zm.301.148a.175.175 0 0 1-.106.038h-.005a.111.111 0 0 1-.075-.029.099.099 0 0 1-.03-.072v-.004c0-.036.018-.068.055-.096l.014-.01.146.172zm-.119-.296c-.032-.039-.047-.071-.047-.097 0-.022.007-.041.019-.056a.064.064 0 0 1 .049-.022h.005a.07.07 0 0 1 .048.019.06.06 0 0 1 .02.045v.002a.082.082 0 0 1-.028.062l-.014.012-.051.035zm1.089.363a.243.243 0 0 0 .079-.167h-.116c-.006.048-.021.082-.044.102s-.057.031-.103.031c-.05 0-.088-.019-.114-.057s-.039-.093-.039-.166v-.059c.001-.072.014-.125.041-.162s.066-.056.117-.056c.043 0 .076.011.099.032s.037.056.042.104h.116c-.008-.073-.034-.13-.079-.17s-.104-.06-.178-.06a.25.25 0 0 0-.24.148l-.001.002a.393.393 0 0 0-.034.159V20.154c.001.062.012.116.034.162s.053.082.094.108a.266.266 0 0 0 .141.038c.076 0 .137-.02.183-.06zm.683-.094a.405.405 0 0 0 .034-.173v-.044a.407.407 0 0 0-.036-.167l.001.003a.253.253 0 0 0-.097-.112l-.001-.001c-.042-.026-.09-.04-.145-.04a.261.261 0 0 0-.243.154.4.4 0 0 0-.035.165v.047c0 .064.012.12.035.169s.056.087.098.114c.043.026.091.04.145.04s.103-.013.145-.04a.259.259 0 0 0 .097-.114zm-.124-.378c.028.04.042.097.042.171v.035c0 .075-.014.133-.042.172s-.067.059-.119.059h-.005a.14.14 0 0 1-.114-.06.288.288 0 0 1-.043-.171v-.039a.291.291 0 0 1 .043-.167.137.137 0 0 1 .113-.059h.005c.051 0 .091.02.119.059z" style="fill:var(--color1, #afb1b8)"/></symbol><symbol id="icon-client-six" viewBox="0 0 32 32"><path fill="#afb1b8" d="M16.08 15.512a.55.55 0 0 1-.115-.338l.001-.038v.002-.543c0-.166.038-.293.113-.379s.205-.13.389-.129c.173 0 .295.037.368.111a.454.454 0 0 1 .109.325v.128h-.309v-.129a.679.679 0 0 0-.009-.127.118.118 0 0 0-.044-.075.175.175 0 0 0-.099-.03l-.014.001h.001-.013a.189.189 0 0 0-.105.032h.001a.143.143 0 0 0-.051.082v.001a.6.6 0 0 0-.012.124v.011-.001.659a.336.336 0 0 0 .04.185c.016.02.037.035.061.044h.001a.17.17 0 0 0 .061.012l.019-.001h-.001.013c.036 0 .07-.011.097-.031h-.001a.131.131 0 0 0 .046-.079v-.001a.734.734 0 0 0 .01-.132v-.134h.309v.122l.001.032a.495.495 0 0 1-.109.31l.001-.001c-.071.081-.192.121-.37.121s-.312-.043-.388-.133zm1.286.006c-.078-.085-.117-.208-.117-.371v-.571c0-.161.039-.283.117-.366s.208-.124.391-.124c.182 0 .311.041.389.124s.118.205.118.366v.571c0 .161-.04.285-.119.37s-.208.127-.388.127-.313-.043-.392-.127zm.535-.137a.315.315 0 0 0 .037-.169v-.699l.001-.019a.307.307 0 0 0-.038-.148l.001.002a.146.146 0 0 0-.062-.045h-.001a.17.17 0 0 0-.061-.011l-.022.001h.001l-.021-.001a.18.18 0 0 0-.062.011h.001a.146.146 0 0 0-.063.045.304.304 0 0 0-.037.166v.702a.315.315 0 0 0 .037.169c.018.018.04.032.065.042a.226.226 0 0 0 .16 0l-.001.001a.192.192 0 0 0 .065-.042v-.003zm.735-1.278h.332l.25 1.053.256-1.053h.324l.033 1.52h-.239l-.026-1.057-.247 1.057h-.192l-.256-1.06-.024 1.06h-.242l.03-1.52zm1.567 0h.518c.298 0 .448.144.448.432 0 .276-.157.413-.471.413h-.176v.676h-.32l.002-1.52zm.443.65a.247.247 0 0 0 .176-.048.244.244 0 0 0 .046-.172v-.017a.471.471 0 0 0-.017-.125l.001.003a.11.11 0 0 0-.024-.042.131.131 0 0 0-.04-.03h-.001a.322.322 0 0 0-.126-.025h-.017.001-.124v.454h.124zm.984-.65h.344l.352 1.52h-.298l-.07-.351h-.306l-.072.351h-.302l.352-1.52zm.294.994-.12-.638-.12.638h.239zm.686-.994h.224l.428.867v-.867h.265v1.52h-.213l-.431-.905v.905h-.274l.001-1.52zm1.539.941-.356-.938h.3l.217.603.204-.603h.294l-.352.939v.58h-.307v-.58zm-7.575 1.244v.079h-.261v.618h-.109v-.618h-.262v-.079h.632zm.818.698H17.305a.038.038 0 0 1-.021-.007.036.036 0 0 1-.014-.016l-.075-.166h-.362l-.075.166a.039.039 0 0 1-.012.019.041.041 0 0 1-.022.007H16.638l.32-.697h.111l.324.695zm-.53-.259h.302l-.128-.284a.625.625 0 0 1-.023-.062l-.001-.004-.012.037-.012.029-.127.283zm1.081.19a.6.6 0 0 0 .06 0c.017-.002.034-.004.051-.008.016-.003.031-.008.046-.013l.043-.017v-.157h-.129a.023.023 0 0 1-.016-.006.01.01 0 0 1-.005-.006.014.014 0 0 1-.002-.006v-.054h.248v.267a.48.48 0 0 1-.131.056l-.003.001c-.026.007-.053.011-.08.015a.964.964 0 0 1-.093.004h-.004a.497.497 0 0 1-.16-.027l.003.001a.408.408 0 0 1-.129-.073h.001a.348.348 0 0 1-.082-.108l-.001-.002a.334.334 0 0 1-.029-.14V16.635c0-.051.011-.1.03-.144l-.001.002c.018-.041.047-.079.082-.11s.08-.056.128-.072a.522.522 0 0 1 .171-.026.468.468 0 0 1 .229.052c.02.011.038.023.056.036l-.031.043a.028.028 0 0 1-.01.009.033.033 0 0 1-.015.004.036.036 0 0 1-.02-.006l-.033-.018.002.001a.22.22 0 0 0-.041-.018l-.002-.001a.377.377 0 0 0-.056-.015h-.002a.463.463 0 0 0-.077-.006H17.932a.376.376 0 0 0-.122.02l.003-.001a.26.26 0 0 0-.094.055.265.265 0 0 0-.059.085l-.001.002a.326.326 0 0 0 .001.234l-.001-.002a.264.264 0 0 0 .157.143.363.363 0 0 0 .127.014zm1.019-.011h.349v.079h-.456v-.697h.109l-.003.618zm.713.08h-.109v-.697h.109v.697zm.406-.694a.043.043 0 0 1 .017.013l.467.526v-.025.001-.52h.095v.7h-.059c-.007 0-.014-.002-.021-.004-.007-.003-.012-.008-.017-.013l-.467-.525v.542h-.091v-.697h.057l.018.003zm1.385-.004v.077h-.387v.23h.314v.074h-.314v.238h.387v.077h-.5v-.696h.5zm-11.459-4.306 4.856 1.19v4.171l-4.856-1.19v-4.172zm-.312-.355v4.73l5.478 1.343v-4.729l-5.478-1.344z" style="fill:var(--color1, #afb1b8)"/><path fill="#afb1b8" d="m12.631 19.895-5.478-1.344v-4.729l5.478 1.344v4.73z" style="fill:var(--color1, #afb1b8)"/><path fill="#afb1b8" d="m9.786 11.929 4.792 1.175-2.038 1.76-4.793-1.176 2.039-1.759zm-.091-.302-2.543 2.195 5.478 1.344 2.542-2.195-5.478-1.344zm3.244 8.002 2.234-1.929-2.234-.548v2.477z" style="fill:var(--color1, #afb1b8)"/></symbol><symbol id="icon-client-three" viewBox="0 0 32 32"><path fill="#afb1b8" d="m12.876 19.595.009.002a.018.018 0 0 1 .007.005l.041.039a.341.341 0 0 1-.116.075.443.443 0 0 1-.153.027h-.011.001a.444.444 0 0 1-.154-.025.318.318 0 0 1-.116-.071.307.307 0 0 1-.074-.107l-.001-.002a.35.35 0 0 1-.026-.136v-.011c0-.096.042-.182.108-.241a.367.367 0 0 1 .123-.071.5.5 0 0 1 .159-.025h.01c.049 0 .096.008.14.024l-.003-.001a.404.404 0 0 1 .111.063l-.034.042a.016.016 0 0 1-.009.007.024.024 0 0 1-.012.003h-.002a.033.033 0 0 1-.015-.004l-.018-.011-.026-.014a.318.318 0 0 0-.079-.025h-.002a.336.336 0 0 0-.057-.005H12.668a.322.322 0 0 0-.112.02l.002-.001a.24.24 0 0 0-.148.137.28.28 0 0 0-.021.107v.008c0 .039.008.076.022.11l-.001-.002a.246.246 0 0 0 .142.135.306.306 0 0 0 .106.018.444.444 0 0 0 .063-.004.243.243 0 0 0 .136-.058.032.032 0 0 1 .019-.007zm1.186-.197v.004a.33.33 0 0 1-.029.137l.001-.002a.288.288 0 0 1-.077.107.374.374 0 0 1-.119.07l-.002.001a.486.486 0 0 1-.316-.001l.004.001a.372.372 0 0 1-.121-.071.315.315 0 0 1-.077-.107l-.001-.002a.348.348 0 0 1 .001-.28l-.001.002a.322.322 0 0 1 .198-.177.486.486 0 0 1 .315.001l-.003-.001a.334.334 0 0 1 .199.178.357.357 0 0 1 .028.14zm-.108 0v-.006a.3.3 0 0 0-.02-.108l.001.002a.23.23 0 0 0-.14-.135h-.002a.371.371 0 0 0-.229.001l.003-.001a.228.228 0 0 0-.142.135l-.001.002a.327.327 0 0 0 0 .225l-.001-.002a.227.227 0 0 0 .141.135h.002a.367.367 0 0 0 .227 0 .232.232 0 0 0 .142-.135.306.306 0 0 0 .02-.111zm.917.117.011.025a.592.592 0 0 1 .026-.05l-.001.001.262-.414c.005-.007.01-.012.015-.013l.018-.002h.081v.674h-.092v-.54.001l-.264.42a.043.043 0 0 1-.015.015.04.04 0 0 1-.022.006h-.016a.04.04 0 0 1-.022-.006.036.036 0 0 1-.015-.015l-.272-.423v.541h-.089v-.672h.081a.1.1 0 0 1 .018.002h-.001a.03.03 0 0 1 .014.013l.268.415a.171.171 0 0 1 .013.023v.001zm.987-.033v.252h-.102v-.673h.229a.462.462 0 0 1 .128.015.257.257 0 0 1 .09.042.172.172 0 0 1 .051.065v.001a.197.197 0 0 1 .017.086v.004a.186.186 0 0 1-.074.149.257.257 0 0 1-.091.044.422.422 0 0 1-.116.016h-.009l-.124-.002zm0-.072h.124a.308.308 0 0 0 .08-.01.167.167 0 0 0 .058-.029.13.13 0 0 0 .047-.1V19.262a.11.11 0 0 0-.011-.048v.001a.137.137 0 0 0-.036-.046.217.217 0 0 0-.122-.037l-.017.001h.001-.124v.277zm1.379.325h-.083a.037.037 0 0 1-.021-.006.037.037 0 0 1-.013-.015l-.07-.163h-.351l-.072.163a.039.039 0 0 1-.035.022h-.082l.308-.674h.107l.312.674zm-.508-.25h.29l-.122-.274a.533.533 0 0 1-.023-.063l-.012.035-.011.029-.121.274zm.952-.421a.044.044 0 0 1 .015.012l.449.508v-.523h.092v.674h-.052a.065.065 0 0 1-.02-.004.066.066 0 0 1-.017-.012l-.448-.507v.024-.001.501h-.092v-.674h.054c.006 0 .013.001.018.003zm1.313.403v.267h-.103v-.267l-.284-.406h.094c.007 0 .014.002.02.006l.014.015.177.262.018.031.013.028.013-.029a.307.307 0 0 1 .017-.031l.175-.264a.058.058 0 0 1 .013-.014.037.037 0 0 1 .02-.007h.095l-.284.408zm-4.174-1.536c.045.005.09.009.136.012.693-.269 1.278-.71 1.684-1.266s.614-1.205.598-1.864l-.763-.663c.155.702.082 1.427-.21 2.095s-.792 1.252-1.445 1.687z" style="fill:var(--color1, #afb1b8)"/><path fill="#afb1b8" d="m14.548 17.9.021.004c.697-.433 1.229-1.038 1.526-1.737s.346-1.459.141-2.182l-1.087-.944c.44.776.616 1.645.51 2.505s-.491 1.676-1.111 2.354zm3.686-2.309c-.185.724-.633 1.377-1.279 1.862-.176.134-.375.26-.585.368l-.023.011c.526-.134 1.009-.372 1.413-.694s.717-.721.915-1.165l-.441-.383z" style="fill:var(--color1, #afb1b8)"/><path fill="#afb1b8" d="m18.061 15.484-.628-.545c-.012.622-.216 1.229-.589 1.76s-.904.964-1.536 1.256h.003c.141 0 .281-.008.421-.022.591-.209 1.112-.543 1.519-.97s.685-.935.81-1.479zm-3.423-2.842-.749-.651c-.669.225-1.245.62-1.652 1.134s-.625 1.122-.627 1.746c.002.689.269 1.358.759 1.9s1.172.927 1.941 1.094c.687-.727 1.089-1.625 1.148-2.564s-.228-1.87-.82-2.658zm5.153 2.742c-.003-.817-.378-1.601-1.043-2.179s-1.567-.904-2.508-.906h-.008c-.452 0-.886.075-1.291.214l.028-.008 4.584 3.983c.149-.325.237-.704.237-1.104z" style="fill:var(--color1, #afb1b8)"/></symbol><symbol id="icon-client-two" viewBox="0 0 32 32"><path fill="#afb1b8" d="M15.457 11.47h-.026a3.418 3.418 0 0 0-.116-.004h-.089c-.075 0-.151.002-.227.006h-.018a5.293 5.293 0 0 0-2.011.519l.032-.014-.082.039v4.168l.191-.065c.167-.057.345-.109.53-.157a6.268 6.268 0 0 1 1.519-.202h.004v.548a3.29 3.29 0 0 0-.2.006h-.016a6.12 6.12 0 0 0-1.215.189l.042-.009c-.53.135-.995.321-1.427.56l.031-.016v-5.345a5.49 5.49 0 0 1 1.427-.588l.039-.008a5.487 5.487 0 0 1 1.38-.178h.082c.096.002.19.007.278.013.232.016.462.053.688.11v.539a4.057 4.057 0 0 0-.653-.1l-.014-.001-.014-.001a1.755 1.755 0 0 0-.135-.008h-.002zm.948.551c.12.009.243.014.369.014a5.915 5.915 0 0 0 1.493-.196l-.041.009a5.97 5.97 0 0 0 1.427-.56l-.031.016v5.25c-.422.251-.91.455-1.427.587l-.039.008a5.487 5.487 0 0 1-1.38.178h-.035c-.36 0-.709-.045-1.043-.13l.029.006v-5.284a4.33 4.33 0 0 0 .678.101zm2.672.041-.191.064a8.43 8.43 0 0 1-.529.159 6.283 6.283 0 0 1-1.581.203h-.001c-.124 0-.238-.003-.349-.011l-.152-.01v4.287l.13.011c.121.011.246.016.371.016a5.088 5.088 0 0 0 1.281-.169l-.035.008a5.208 5.208 0 0 0 1.005-.364l-.031.014.081-.039v-4.169zM12.751 18.863a.28.28 0 0 0-.202-.086h-.01.001-.004a.3.3 0 0 0-.12.024l.002-.001a.28.28 0 0 0-.156.157l-.001.002a.32.32 0 0 0-.022.118v.714c-.002.05.008.1.028.146a.256.256 0 0 0 .17.147.39.39 0 0 0 .107.015.303.303 0 0 0 .296-.301v-.08h-.187v.068a.168.168 0 0 1-.011.06v-.001a.113.113 0 0 1-.027.04.125.125 0 0 1-.078.027l-.011.001a.093.093 0 0 1-.076-.039.164.164 0 0 1-.025-.088v-.674a.235.235 0 0 1 .023-.107.097.097 0 0 1 .092-.043h.004a.1.1 0 0 1 .08.04.152.152 0 0 1 .031.092v.066h.185v-.076a.319.319 0 0 0-.024-.124l.001.002a.298.298 0 0 0-.063-.101zm1.109-.007a.32.32 0 0 0-.323-.059.294.294 0 0 0-.17.156l-.001.002a.327.327 0 0 0-.027.138v.685a.336.336 0 0 0 .027.14.282.282 0 0 0 .072.096c.029.026.062.047.099.06s.073.02.111.02a.322.322 0 0 0 .213-.081.277.277 0 0 0 .07-.096.336.336 0 0 0 .027-.14V19.086a.331.331 0 0 0-.028-.134l.001.002a.31.31 0 0 0-.07-.1zm-.088.923v.011a.125.125 0 0 1-.037.089.136.136 0 0 1-.176 0 .123.123 0 0 1-.038-.088l.001-.011V19.084a.12.12 0 0 1 .037-.088.136.136 0 0 1 .176 0 .123.123 0 0 1 .038.088l-.001.011v.685zm1.544.306v-1.297h-.179l-.236.686h-.003l-.238-.686h-.178v1.297h.185v-.789h.003l.181.558h.092l.183-.558h.003v.789h.185zm1.053-1.206a.261.261 0 0 0-.105-.071.398.398 0 0 0-.127-.02H15.855v1.297h.185v-.507h.095a.344.344 0 0 0 .167-.035.28.28 0 0 0 .101-.098l.001-.001c.021-.034.036-.073.042-.113s.01-.088.01-.136v-.012.001a.718.718 0 0 0-.018-.185.276.276 0 0 0-.068-.119zm-.096.395a.16.16 0 0 1-.018.069v-.001a.102.102 0 0 1-.047.045h-.001a.179.179 0 0 1-.078.017h-.094v-.441h.104c.027 0 .053.006.076.017h-.001a.103.103 0 0 1 .043.047v.001a.18.18 0 0 1 .016.072v.086c0 .03.002.061 0 .089h-.002zm.971-.486h-.152l-.286 1.297h.185l.054-.279h.252l.054.279h.185l-.293-1.297zm-.171.841.091-.47h.003l.09.47h-.185zm1.365-.06h-.003l-.279-.781h-.178v1.297h.185v-.78h.004l.282.78h.174v-1.297h-.185v.781zm1.129-.781-.149.516h-.004l-.149-.516h-.196l.254.749v.548h.185v-.548l.254-.749h-.196zm-7.332 1.663h.089v.25h.06v-.25h.088V20.4h-.238v.051zm.749-.052-.117.301h.064l.025-.069h.12l.026.069h.066l-.12-.301h-.064zm-.009.182.041-.112.041.112h-.082zm.749.009h.07v.039a.11.11 0 0 1-.072.025h-.004a.076.076 0 0 1-.06-.029.125.125 0 0 1-.022-.072v-.007c0-.067.029-.101.087-.101h.007c.03 0 .055.02.062.048l.059-.011c-.013-.059-.055-.088-.128-.088h-.004a.151.151 0 0 0-.101.039.148.148 0 0 0-.044.105v.019c0 .04.015.078.039.106a.148.148 0 0 0 .105.044h.015c.047 0 .09-.018.123-.048v-.119h-.13v.051zm.756-.191h-.061v.301h.211v-.051h-.15v-.25zm.638 0h-.061v.301h.061v-.301zm.625.201-.123-.201h-.059v.301h.056v-.197l.121.197h.061v-.301h-.056v.201zm.565-.032h.15v-.051h-.15v-.066h.161V20.4h-.222v.301h.229v-.051h-.168v-.081zm1.37-.05h-.119v-.119h-.06v.301h.06v-.132h.119v.132h.061v-.301h-.061v.119zm.568.05h.151v-.051h-.151v-.066h.162V20.4h-.222v.301h.228v-.051h-.168v-.081zm.77 0c.053-.008.079-.036.079-.084l.001-.009a.071.071 0 0 0-.03-.058.174.174 0 0 0-.076-.018h-.012.001-.128v.301h.061v-.126h.017c.012 0 .023.003.033.007a.056.056 0 0 1 .021.022l.066.096h.072l-.037-.059a.218.218 0 0 0-.066-.072h-.001zm-.061-.042h-.045v-.075h.048l.013-.001c.017 0 .034.003.05.008h-.001a.04.04 0 0 1 .008.049.047.047 0 0 1-.011.013.159.159 0 0 1-.05.008h-.012.001zm.642.042h.15v-.051h-.15v-.066h.162V20.4h-.223v.301h.229v-.051h-.168v-.081z" style="fill:var(--color1, #afb1b8)"/></symbol><symbol id="icon-cont-envelope" viewBox="0 0 32 32"><path  d="M29 4H3C1.346 4 0 5.346 0 7v18c0 1.654 1.346 3 3 3h26c1.654 0 3-1.346 3-3V7c0-1.654-1.346-3-3-3zm0 2c.136 0 .266.028.384.078L16 17.678 2.616 6.078A.971.971 0 0 1 3 6h26zm0 20H3a1 1 0 0 1-1-1V8.19l13.344 11.566a.997.997 0 0 0 1.313-.001l-.001.001L30 8.19V25a1 1 0 0 1-1 1z" /></symbol><symbol id="icon-cont-smartphone" viewBox="0 0 32 32"><path  d="M23 0H9C7.346 0 6 1.346 6 3v26c0 1.654 1.346 3 3 3h14c1.654 0 3-1.346 3-3V3c0-1.654-1.346-3-3-3zM9 2h14a1 1 0 0 1 1 1v21H8V3a1 1 0 0 1 1-1zm14 28H9a1 1 0 0 1-1-1v-3h16v3a1 1 0 0 1-1 1z" /><path  d="M10.707 27.478c.391.365.391.956 0 1.321s-1.024.365-1.414 0c-.391-.365-.391-.956 0-1.321s1.024-.365 1.414 0z" /></symbol><symbol id="icon-feach-antenna" viewBox="0 0 32 32"><path fill="#212121" d="m30.773 22.098-8.443-8.505.937-4.616c.225.09.485.144.758.146h.033a2.16 2.16 0 1 0-2.029-1.42l-.005-.015-4.96.606L8.973.161a.53.53 0 0 0-.376-.16.536.536 0 0 0-.373.155L6.712 1.66a.535.535 0 0 0 0 .754l.814.825C6.383 5.301 5.71 7.761 5.71 10.378c0 4.106 1.656 7.824 4.336 10.525l-.001-.001a.49.49 0 0 0 .146.097 2.986 2.986 0 0 0-.052.546v6.188h-6.4a2.669 2.669 0 0 0-2.667 2.666v1.067c0 .295.239.534.534.534H26.14a.534.534 0 0 0 .533-.534v-1.067a2.67 2.67 0 0 0-2.666-2.666h-6.4v-2.742a14.784 14.784 0 0 0 10.166-1.502l-.077.039.818.823a.534.534 0 0 0 .376.16.536.536 0 0 0 .373-.155l1.512-1.504a.535.535 0 0 0 0-.754zM23.28 6.233a1.067 1.067 0 1 1 .752 1.822h-.004a1.066 1.066 0 0 1-.747-1.822h-.002zm-1.256 3.504-.598 2.946-1.175-1.183 1.774-1.763zm-.605-.902-1.92 1.909-1.486-1.493 3.406-.416zM24.004 28.8a1.6 1.6 0 0 1 1.6 1.6v.534H2.138V30.4a1.6 1.6 0 0 1 1.6-1.6h20.267zm-7.466-2.134v1.067h-5.334v-1.067h5.334zM11.204 25.6v-4.053c0-1.294 1.196-2.346 2.667-2.346s2.667 1.053 2.667 2.346V25.6h-5.334zm6.4-1.696v-2.357c0-1.882-1.675-3.413-3.733-3.413h-.058c-1.353 0-2.54.707-3.213 1.771l-.009.016a13.817 13.817 0 0 1-3.812-9.55c0-2.314.567-4.496 1.569-6.414l-.036.077 18.602 18.709c-1.823.947-3.979 1.502-6.266 1.502-1.079 0-2.128-.124-3.136-.357l.093.018zm11.289-.684L7.836 2.039l.754-.752 7.935 7.98c.004 0 .006.007.01.01l13.114 13.191-.757.752z" style="fill:var(--color4, #212121)"/><path fill="#2196f3" d="M13.876 20.267h-.007a1.6 1.6 0 0 0-.003 3.2h.007a1.6 1.6 0 0 0 .002-3.2zm.373 1.978a.534.534 0 1 1-.378-.912.533.533 0 0 1 .374.911h.005z" style="fill:var(--color2, #2196f3)"/></symbol><symbol id="icon-feach-astronaut" viewBox="0 0 32 32"><path fill="#2196f3" d="M31.974 4.524a.535.535 0 0 0-.427-.362h-.003l-1.911-.278-.855-1.731c-.179-.365-.777-.365-.956 0l-.855 1.731-1.911.278a.534.534 0 0 0-.296.91l1.383 1.348-.326 1.903a.532.532 0 0 0 .774.562l1.709-.899 1.709.899a.534.534 0 0 0 .773-.565v.003l-.326-1.903 1.383-1.348a.535.535 0 0 0 .134-.55l.001.004zm-2.463 1.327a.53.53 0 0 0-.153.472l.191 1.114-1-.526a.525.525 0 0 0-.501.001l.003-.001-1 .526.191-1.114a.53.53 0 0 0-.152-.472l-.811-.79 1.119-.162a.532.532 0 0 0 .402-.292l.5-1.013.5 1.013a.532.532 0 0 0 .402.292l1.119.162-.809.79zm-3.377 14.671h-1.067v1.067h1.067v-1.067zm0 2.134h-1.067v1.066h1.067v-1.066zm1.066-1.067h-1.067v1.067H27.2v-1.067zm-2.133 0H24v1.067h1.067v-1.067zm-2.667 4.8h-1.067v1.067H22.4v-1.067zm0 2.134h-1.067v1.067H22.4v-1.067zm1.067-1.067H22.4v1.067h1.067v-1.067zm-2.133 0h-1.067v1.067h1.067v-1.067zM16 24.256h-1.066v1.067H16v-1.067zm0 2.133h-1.066v1.067H16v-1.067zm1.067-1.067H16v1.067h1.067v-1.067zm-2.133 0h-1.067v1.067h1.067v-1.067zm-9.067-19.2H4.801v1.066h1.066V6.122zm0 2.134H4.801v1.066h1.066V8.256zm1.066-1.067H5.866v1.067h1.066V7.189zm-2.133 0H3.733v1.067H4.8V7.189z" style="fill:var(--color2, #2196f3)"/><path fill="#212121" d="M24.715 14.16a1.774 1.774 0 0 0-1.179-.703l-.009-.001a1.769 1.769 0 0 0-1.344.355l.004-.003-1.253.96-1.898 1.417-1.358-.541c2.421-1.086 4.113-3.508 4.113-6.32 0-3.823-3.122-6.934-6.961-6.934S7.869 5.5 7.869 9.324c0 1.386.415 2.674 1.12 3.759l-2.768-.024c-.009 0-.016.005-.023.005a.511.511 0 0 0-.159.033l.004-.001c-.013.005-.026.007-.038.013-.006.003-.013.003-.019.006l-3.233 1.596-.001.001-1.893.91a.5.5 0 0 0-.065.036l.001-.001a1.782 1.782 0 0 0-.594 2.306l-.005-.01c.22.424.592.742 1.043.885l.013.003a1.772 1.772 0 0 0 1.388-.133l-.009.005 1.388-.738 2.264-1.169 1.357-.008-5.442 5.415-.001.001-1.339 1.333a1.643 1.643 0 0 0-.491 1.173v.005a1.668 1.668 0 0 0 1.667 1.664h.002a1.67 1.67 0 0 0 1.18-.485l1.314-1.309 1.741-1.3.901.897L4.07 27.28a1.643 1.643 0 0 0-.491 1.173v.004a1.662 1.662 0 0 0 1.666 1.664h.003a1.67 1.67 0 0 0 1.18-.485l4.488-4.472c.007-.006.016-.009.022-.016l5.166-5.658 3.471.494a.474.474 0 0 0 .262-.032c.017-.006.032-.015.049-.023.019-.01.039-.015.058-.027l3.213-2.133c.012-.008.018-.021.029-.03.013-.01.029-.014.041-.026l1.271-1.191c.348-.326.564-.787.564-1.3 0-.4-.132-.769-.355-1.066l.003.005zM2.13 17.77a.706.706 0 0 1-.564.05l.005.001a.717.717 0 0 1-.215-1.258l.002-.001 1.314-.632.316.924.133.389-.992.527zm3.497-1.828-1.548.8-.255-.746-.184-.537 2.027-1.001-.04 1.484zm15.1-6.62c0 .918-.219 1.785-.599 2.56l-4.181-1.899a1.865 1.865 0 0 0-.782-1.384l-.006-.004 1.464-4.861c2.377.757 4.104 2.975 4.104 5.588zm-11.789 0c0-3.235 2.644-5.867 5.894-5.867.253 0 .5.022.745.053l-1.432 4.753c-.019 0-.037-.006-.057-.006h-.001a1.872 1.872 0 0 0-1.872 1.867 1.873 1.873 0 0 0 1.872 1.867h.001c.695 0 1.295-.383 1.618-.944l3.863 1.755a5.891 5.891 0 0 1-4.737 2.39c-3.25 0-5.894-2.632-5.894-5.867zm5.957.8c0 .441-.362.8-.806.8h-.001a.804.804 0 0 1-.804-.8c0-.441.361-.8.806-.8s.806.359.806.8zM2.464 25.146a.606.606 0 0 1-.855.001.591.591 0 0 1 0-.844l.962-.959.852.848-.959.954zm3.214 3.734a.606.606 0 0 1-.855.001.591.591 0 0 1 0-.844l.963-.959.852.848-.96.955zm3.482-3.469-.001.001-1.765 1.76-.852-.848 1.765-1.757a.527.527 0 0 0 .09-.136c.007-.014.02-.026.026-.04.016-.041.019-.085.026-.128.003-.025.014-.048.014-.073 0-.035-.013-.07-.02-.105-.006-.032-.006-.064-.019-.096a.536.536 0 0 0-.092-.138c-.01-.012-.014-.026-.025-.038h-.001l-.001-.002-1.607-1.6c-.017-.017-.039-.024-.058-.038a.491.491 0 0 0-.084-.056l-.003-.001a.527.527 0 0 0-.09-.031l-.003-.001a.502.502 0 0 0-.101-.02h-.025a.603.603 0 0 0-.075.005h.003c-.036.005-.069.009-.104.021s-.064.027-.094.045c-.02.011-.043.015-.061.029l-1.774 1.324-.901-.897 2.399-2.386 4.36 4.289-.928.919zm6.819-7.017c-.016-.002-.03.004-.046.003l-.027-.001a.562.562 0 0 0-.092.008h.003a.484.484 0 0 0-.187.07l.002-.001a.492.492 0 0 0-.083.061c-.013.011-.028.016-.04.029l-4.698 5.146-4.328-4.256 2.833-2.818a.535.535 0 0 0-.378-.911h-.002l-2.219.013.028-1.607 3.104.027a6.928 6.928 0 0 0 4.978 2.101h.003c.438 0 .864-.046 1.28-.122.04.032.08.064.129.085l2.41.96.152.758.178.886-3.003-.427zm4.041.178-.313-1.558 1.446-1.08.946 1.257-2.08 1.381zm3.753-2.831-.837.785-.931-1.236.831-.637a.735.735 0 0 1 .543-.143.718.718 0 0 1 .621.71.71.71 0 0 1-.226.521z" style="fill:var(--color4, #212121)"/><path fill="#212121" d="m13.602 18.544-2.143-2.134a.53.53 0 0 0-.752 0l-2.143 2.133a.535.535 0 0 0 0 .756l2.142 2.134a.53.53 0 0 0 .752 0l2.143-2.134a.532.532 0 0 0 0-.756zm-2.519 1.759-1.387-1.381 1.386-1.381 1.387 1.381-1.387 1.381zm6.081-15.232-.258 1.036c.071.018 1.738.452 1.738 2.149h1.067c0-2.017-1.666-2.965-2.547-3.184zm2.547 4.251h-1.067v1.066h1.067V9.322z" style="fill:var(--color4, #212121)"/></symbol><symbol id="icon-feach-diagram" viewBox="0 0 32 32"><path fill="#2196f3" d="M14.926 14.965h1.066v4.798h-1.066v-4.798zm4.264 2.132h1.066v2.665H19.19v-2.665zm-8.529 1.599h1.066v1.066h-1.066v-1.066zm-3.198-.533h1.066v1.599H7.463v-1.599z" style="fill:var(--color2, #2196f3)"/><path fill="#212121" d="M1.599 28.291h25.586a1.6 1.6 0 0 0 1.599-1.599V24.56a1.6 1.6 0 0 0-1.599-1.599h-.533V9.667l3.028-2.868a1.608 1.608 0 1 0-.742-.752l-.004-.01-2.281 2.162v-1.23a1.6 1.6 0 0 0-1.599-1.599H3.731a1.6 1.6 0 0 0-1.599 1.599v15.992h-.533A1.6 1.6 0 0 0 0 24.56v2.132a1.6 1.6 0 0 0 1.599 1.599zM30.384 4.837a.533.533 0 0 1 0 1.066.533.533 0 0 1 0-1.066zM3.198 6.969c0-.294.239-.533.533-.533h21.323c.294 0 .533.239.533.533v2.239l-1.066 1.013V8.036a.534.534 0 0 0-.534-.534H4.798a.534.534 0 0 0-.534.533v13.327c0 .294.239.533.534.533h19.189a.534.534 0 0 0 .534-.533v-9.675l1.066-1.01V22.96H3.198V6.969zm4.798 6.93h-.005a1.6 1.6 0 1 0 1.112 2.748l1.853.93a.535.535 0 0 0 .636-.122l3.939-4.432 3.872 2.902a.534.534 0 0 0 .686-.039l3.365-3.188v8.131H5.331V8.568h18.123v2.661l-3.771 3.572-3.904-2.927a.534.534 0 0 0-.718.071v.001l-3.993 4.493-1.493-.746c.011-.064.017-.128.02-.193a1.6 1.6 0 0 0-1.599-1.599zm.533 1.599a.533.533 0 0 1-1.066 0 .533.533 0 0 1 1.066 0zm3.198 8.528h5.33v.533a.533.533 0 0 1-.533.533h-4.265a.533.533 0 0 1-.533-.533v-.533zm-10.66.534c0-.294.238-.533.533-.533h9.062v.533a1.6 1.6 0 0 0 1.599 1.599h4.265a1.6 1.6 0 0 0 1.599-1.599v-.533h9.062c.294 0 .533.239.533.533v2.132a.533.533 0 0 1-.533.533H1.601a.533.533 0 0 1-.533-.533V24.56z" style="fill:var(--color4, #212121)"/></symbol><symbol id="icon-feah-clock" viewBox="0 0 32 32"><path fill="#212121" d="M31.296 15.301C31.295 6.849 24.441-.002 15.988 0S.685 6.855.687 15.308c.002 6.788 4.422 12.543 10.541 14.545l.108.031a.667.667 0 0 0 .529-.065.636.636 0 0 0 .283-.357l3.865-12.25a1.913 1.913 0 1 0-.852-3.63l.011-.005-5.106-5.107a.638.638 0 0 0-.902.902l5.103 5.109a1.847 1.847 0 0 0-.191.826c0 .602.283 1.137.723 1.48l.004.003-3.682 11.673C3.843 25.782.117 17.709 2.797 10.431S13.551-.573 20.829 2.108c7.278 2.681 11.004 10.754 8.323 18.032-1.345 3.581-4.003 6.406-7.374 7.938l-.088.036-.398-1.874a.639.639 0 0 0-1.05-.343l.001-.001-3.837 3.426a.637.637 0 0 0 .227 1.083l.005.001 4.899 1.563a.637.637 0 0 0 .818-.744l.001.004-.391-1.839c5.528-2.374 9.329-7.772 9.329-14.057v-.034.002zm-15.304-.637a.638.638 0 0 1 0 1.276.638.638 0 0 1 0-1.276zm2.1 14.864 2.184-1.948.603 2.84-2.787-.892z" style="fill:var(--color4, #212121)"/><path fill="#2196f3" d="M15.354 3.185V4.46a.638.638 0 0 0 1.276 0V3.185a.638.638 0 1 0-1.276 0zM3.876 14.664a.638.638 0 0 0 0 1.276h1.275a.638.638 0 0 0 0-1.276H3.876zm24.232 1.275a.638.638 0 0 0 0-1.276h-1.275a.638.638 0 0 0 0 1.276h1.275z" style="fill:var(--color2, #2196f3)"/>
</symbol><symbol id="icon-footer-facebook" viewBox="0 0 32 32"><path fill="#fff" d="M21.329 5.313h2.921V.225C23.746.156 22.013 0 19.994 0c-4.212 0-7.097 2.649-7.097 7.519V12H8.249v5.688h4.648V32h5.699V17.689h4.46l.708-5.688h-5.169V8.082c.001-1.644.444-2.769 2.735-2.769z" style="fill:var(--color5, #fff)"/></symbol><symbol id="icon-footer-instagram" viewBox="0 0 32 32"><path  d="M31.969 9.408c-.075-1.7-.35-2.869-.744-3.882a7.806 7.806 0 0 0-1.851-2.838A7.867 7.867 0 0 0 26.542.844C25.523.45 24.36.175 22.66.1 20.947.019 20.403 0 16.059 0s-4.888.019-6.595.094c-1.7.075-2.869.35-3.882.744a7.803 7.803 0 0 0-2.838 1.85A7.867 7.867 0 0 0 .9 5.52C.506 6.539.231 7.702.156 9.402c-.081 1.713-.1 2.257-.1 6.601s.019 4.888.094 6.595c.075 1.7.35 2.869.744 3.882a7.895 7.895 0 0 0 1.85 2.838 7.867 7.867 0 0 0 2.832 1.844c1.019.394 2.182.669 3.882.744 1.706.075 2.25.094 6.595.094s4.888-.019 6.595-.094c1.7-.075 2.869-.35 3.882-.744a8.184 8.184 0 0 0 4.682-4.682c.394-1.019.669-2.182.744-3.882.075-1.707.094-2.251.094-6.595s-.006-4.888-.081-6.595zm-2.882 13.065c-.069 1.563-.331 2.407-.55 2.969a5.31 5.31 0 0 1-3.038 3.038c-.563.219-1.413.481-2.969.55-1.688.075-2.194.094-6.464.094s-4.782-.019-6.464-.094c-1.563-.069-2.407-.331-2.969-.55a4.926 4.926 0 0 1-1.838-1.194 4.974 4.974 0 0 1-1.194-1.838c-.219-.563-.481-1.413-.55-2.969-.075-1.688-.094-2.194-.094-6.464s.019-4.782.094-6.464c.069-1.563.331-2.407.55-2.969a4.868 4.868 0 0 1 1.2-1.838A4.974 4.974 0 0 1 6.639 3.55c.563-.219 1.413-.481 2.969-.55 1.688-.075 2.194-.094 6.464-.094 4.276 0 4.782.019 6.464.094 1.563.069 2.407.331 2.969.55a4.914 4.914 0 0 1 1.838 1.194 4.974 4.974 0 0 1 1.194 1.838c.219.563.481 1.413.55 2.969.075 1.688.094 2.194.094 6.464s-.019 4.77-.094 6.458z" /><path  d="M16.059 7.783c-4.538 0-8.22 3.682-8.22 8.22s3.682 8.22 8.22 8.22c4.539 0 8.22-3.682 8.22-8.22s-3.682-8.22-8.22-8.22zm0 13.552a5.333 5.333 0 0 1 0-10.664 5.333 5.333 0 0 1 0 10.664zM26.524 7.458a1.919 1.919 0 1 1-3.838 0 1.919 1.919 0 0 1 3.838 0z" /></symbol><symbol id="icon-footer-linkedin" viewBox="0 0 32 32"><path  d="M32 16c0 4.418-1.791 8.418-4.686 11.314S20.419 32 16 32s-8.418-1.791-11.314-4.686C1.791 24.419 0 20.419 0 16S1.791 7.582 4.686 4.686C7.581 1.791 11.581 0 16 0s8.418 1.791 11.314 4.686A15.95 15.95 0 0 1 32 16z" opacity=".1" /><path  d="M23.269 23.273v-.001h.004v-5.335c0-2.61-.562-4.62-3.613-4.62-1.467 0-2.451.805-2.853 1.568h-.042v-1.324h-2.893v9.711h3.012v-4.809c0-1.266.24-2.49 1.808-2.49 1.545 0 1.568 1.445 1.568 2.572v4.728h3.009zM8.967 13.562h3.016v9.711H8.967v-9.711zM10.474 8.727c-.964 0-1.747.782-1.747 1.747s.782 1.763 1.747 1.763c.964 0 1.747-.799 1.747-1.763s-.783-1.747-1.747-1.747z" /></symbol><symbol id="icon-footer-twitter" viewBox="0 0 32 32"><path  d="M32 6.078c-1.19.522-2.458.868-3.78 1.036a6.523 6.523 0 0 0 2.886-3.626 13.11 13.11 0 0 1-4.16 1.588A6.574 6.574 0 0 0 22.154 3c-3.632 0-6.556 2.948-6.556 6.562 0 .52.044 1.02.152 1.496-5.454-.266-10.28-2.88-13.522-6.862a6.605 6.605 0 0 0-.898 3.316 6.57 6.57 0 0 0 2.914 5.452 6.479 6.479 0 0 1-2.964-.808v.072c0 3.188 2.274 5.836 5.256 6.446a6.548 6.548 0 0 1-1.72.216 5.8 5.8 0 0 1-1.242-.112c.85 2.598 3.262 4.508 6.13 4.57a13.182 13.182 0 0 1-8.134 2.798c-.538 0-1.054-.024-1.57-.09A18.469 18.469 0 0 0 10.064 29c12.072 0 18.672-10 18.672-18.668 0-.29-.01-.57-.024-.848A13.087 13.087 0 0 0 32 6.078z" /></symbol><symbol id="icon-pikt-facebook" viewBox="0 0 32 32"><path  d="M21.329 5.313h2.921V.225C23.746.156 22.013 0 19.994 0c-4.212 0-7.097 2.649-7.097 7.519V12H8.249v5.688h4.648V32h5.699V17.689h4.46l.708-5.688h-5.169V8.082c.001-1.644.444-2.769 2.735-2.769z" /></symbol><symbol id="icon-pikt-instagram" viewBox="0 0 32 32"><path  d="M31.969 9.408c-.075-1.7-.35-2.869-.744-3.882a7.806 7.806 0 0 0-1.851-2.838A7.867 7.867 0 0 0 26.542.844C25.523.45 24.36.175 22.66.1 20.947.019 20.403 0 16.059 0s-4.888.019-6.595.094c-1.7.075-2.869.35-3.882.744a7.803 7.803 0 0 0-2.838 1.85A7.867 7.867 0 0 0 .9 5.52C.506 6.539.231 7.702.156 9.402c-.081 1.713-.1 2.257-.1 6.601s.019 4.888.094 6.595c.075 1.7.35 2.869.744 3.882a7.895 7.895 0 0 0 1.85 2.838 7.867 7.867 0 0 0 2.832 1.844c1.019.394 2.182.669 3.882.744 1.706.075 2.25.094 6.595.094s4.888-.019 6.595-.094c1.7-.075 2.869-.35 3.882-.744a8.184 8.184 0 0 0 4.682-4.682c.394-1.019.669-2.182.744-3.882.075-1.707.094-2.251.094-6.595s-.006-4.888-.081-6.595zm-2.882 13.065c-.069 1.563-.331 2.407-.55 2.969a5.31 5.31 0 0 1-3.038 3.038c-.563.219-1.413.481-2.969.55-1.688.075-2.194.094-6.464.094s-4.782-.019-6.464-.094c-1.563-.069-2.407-.331-2.969-.55a4.926 4.926 0 0 1-1.838-1.194 4.974 4.974 0 0 1-1.194-1.838c-.219-.563-.481-1.413-.55-2.969-.075-1.688-.094-2.194-.094-6.464s.019-4.782.094-6.464c.069-1.563.331-2.407.55-2.969a4.868 4.868 0 0 1 1.2-1.838A4.974 4.974 0 0 1 6.639 3.55c.563-.219 1.413-.481 2.969-.55 1.688-.075 2.194-.094 6.464-.094 4.276 0 4.782.019 6.464.094 1.563.069 2.407.331 2.969.55a4.914 4.914 0 0 1 1.838 1.194 4.974 4.974 0 0 1 1.194 1.838c.219.563.481 1.413.55 2.969.075 1.688.094 2.194.094 6.464s-.019 4.77-.094 6.458z" /><path  d="M16.059 7.783c-4.538 0-8.22 3.682-8.22 8.22s3.682 8.22 8.22 8.22c4.539 0 8.22-3.682 8.22-8.22s-3.682-8.22-8.22-8.22zm0 13.552a5.333 5.333 0 0 1 0-10.664 5.333 5.333 0 0 1 0 10.664zM26.524 7.458a1.919 1.919 0 1 1-3.838 0 1.919 1.919 0 0 1 3.838 0z" /></symbol><symbol id="icon-pikt-linkedin" viewBox="0 0 32 32"><path  d="M31.992 32v-.001H32V20.263c0-5.741-1.236-10.164-7.948-10.164-3.227 0-5.392 1.771-6.276 3.449h-.093v-2.913h-6.364v21.364h6.627V21.42c0-2.785.528-5.479 3.977-5.479 3.399 0 3.449 3.179 3.449 5.657v10.401h6.62zM.528 10.636h6.635V32H.528V10.636zM3.843 0C1.722 0 0 1.721 0 3.843s1.721 3.879 3.843 3.879c2.121 0 3.843-1.757 3.843-3.879A3.846 3.846 0 0 0 3.843 0z" /></symbol><symbol id="icon-pikt-twitter" viewBox="0 0 32 32"><path  d="M32 6.078c-1.19.522-2.458.868-3.78 1.036a6.523 6.523 0 0 0 2.886-3.626 13.11 13.11 0 0 1-4.16 1.588A6.574 6.574 0 0 0 22.154 3c-3.632 0-6.556 2.948-6.556 6.562 0 .52.044 1.02.152 1.496-5.454-.266-10.28-2.88-13.522-6.862a6.605 6.605 0 0 0-.898 3.316 6.57 6.57 0 0 0 2.914 5.452 6.479 6.479 0 0 1-2.964-.808v.072c0 3.188 2.274 5.836 5.256 6.446a6.548 6.548 0 0 1-1.72.216 5.8 5.8 0 0 1-1.242-.112c.85 2.598 3.262 4.508 6.13 4.57a13.182 13.182 0 0 1-8.134 2.798c-.538 0-1.054-.024-1.57-.09A18.469 18.469 0 0 0 10.064 29c12.072 0 18.672-10 18.672-18.668 0-.29-.01-.57-.024-.848A13.087 13.087 0 0 0 32 6.078z" /></symbol></defs></svg>